<svg width="166.78mm" height="78.744mm" version="1.1" viewBox="0 0 166.78 78.744" xmlns="http://www.w3.org/2000/svg"><defs><clipPath id="a"><path d="m0 0h472.9v223.36h-472.9z"/></clipPath></defs><g transform="translate(-23.579 -85.217)"><g transform="matrix(.35278 0 0 .35278 23.579 85.163)"><g clip-path="url(#a)"><path d="m0 223.36h472.77v-223.21h-472.77z" fill="#12171c00"/></g><path d="m73.746 111.25 7.6523-0.74219c5.043-0.48828 7.7188 1.7109 8.0938 5.582l1.8008 18.586c0.375 3.875-1.7305 6.6992-6.8594 7.1953l-7.6484 0.74219zm32.781 22.969-1.9375-20.012c-1.3476-13.879-13.117-18.859-25.059-17.703l-22.293 2.1602 5.7695 59.551 22.293-2.1602c11.949-1.0742 22.555-8.1211 21.227-21.836" fill="#fff200"/><path d="m126.62 152.05 15.055-1.457-2.2734-23.465 17.359-38.105-17.66 1.7109-8.6406 22.91-12.895-20.824-17.484 1.6914 24.266 34.074z" fill="#fff200"/><path d="m176.5 123.2-3.0508-11.336 0.42188-0.125 6.3672 11.434 15.734 22.164 15.219-1.4766-5.7656-59.551-14.977 1.4492 2.6172 27.008c0.0859-8e-3 2.5938 10.098 2.6797 10.09l-0.41797 0.125-6.1953-11.449-16.848-24.012-14.297 1.3828 5.7734 59.555 15.047-1.457z" fill="#fff200"/><path d="m237.43 98.199 0.41406-0.04297 5.8164 17.008-8.9141 0.86328zm-4.7539 31.531 15.895-1.5391 5.0312 11.562 16.137-1.5625-27.047-57.492-13.699 1.3281-15.008 61.566 16.148-1.5625z" fill="#fff200"/><path d="m286.43 119.26-2.1797-11.934 0.41797-0.12109 9.9727 19.664 10.344-1 5.8398-21.199 0.50781 0.0352 0.24219 12.117 1.5781 17.168 15.141-1.4688-5.7695-59.551-15.055 1.457-9.7969 30.324-15.352-27.887-15.051 1.457 5.7695 59.551 15.051-1.457z" fill="#fff200"/><path d="m349 70.402-15.062 1.457 5.7695 59.555 15.062-1.4609z" fill="#fff200"/><path d="m387.44 126.79 15.227-1.4766-4.3945-45.328 15.809-1.5312-1.3867-14.305-46.844 4.5391 1.3867 14.301 15.809-1.5312z" fill="#fff200"/><path d="m377 113.05-14.41 1.3945 1.4024 14.422 14.406-1.3984z" fill="#fff200"/><path d="m374.89 91.227-14.41 1.3984 1.3984 14.426 14.41-1.3984z" fill="#fff200"/><path d="m298.38 59.707c0.13672 1.418 1.7812 1.9453 3.3359 1.7969 1.5508-0.15234 3.0352-1.0078 2.8984-2.3984l-0.63672-6.5898c-0.14453-1.5-1.8203-2.0234-3.3984-1.8711-1.5234 0.14844-2.9766 1.0586-2.8398 2.4727zm-5.5156-6.1172c-0.42969-4.4375 3.3359-7 7.3398-7.3906 4.0039-0.38672 8.2227 1.4297 8.6484 5.8438l0.63672 6.5898c0.42968 4.4102-3.332 7.0039-7.3359 7.3906-4.0039 0.39062-8.2227-1.4297-8.6484-5.8438z" fill="#fff200"/><path d="m319.49 53.652c3.0742-0.30078 2.6484-4.7109-0.42969-4.4141l-2.8594 0.27734 0.42969 4.4141zm-1.582 4.3867-0.87109 0.08203 0.58984 6.1289-4.9258 0.47656-1.8711-19.281 7.7109-0.74609c3.9727-0.38672 7.2266 1.1406 7.7774 5.6523 0.34375 3.5664-0.90625 5.7227-3.1758 6.6836l5.8984 6.1094-6.0742 0.58984z" fill="#fff200"/><path d="m335.17 62.551-4.875 0.47266-1.8672-19.281 4.875-0.47266z" fill="#fff200"/><path d="m346.68 47.746c-1.3125-2.4844-5.5586-1.4688-5.3125 1.0625l0.64453 6.6211c0.29297 3.0195 5.9258 2.4453 5.6367-0.54688l-0.0703-0.71094-3.0781 0.30078-0.39453-4.0859 7.7617-0.75391 0.46484 4.7969c0.42969 4.4375-3.0586 7.0273-6.9258 7.4023-3.8125 0.37109-7.8398-1.4961-8.2695-5.9297l-0.64453-6.6211c-0.41797-4.3555 3.1797-6.9062 6.9961-7.2734 2.5039-0.24219 5.4648 0.51563 7.0938 3.4609z" fill="#fff200"/><path d="m360.09 60.137-4.875 0.47266-1.8711-19.281 4.875-0.47266z" fill="#fff200"/><path d="m361.27 40.559 4.6328-0.44922 5.4531 7.7734 2.0078 3.707 0.13281-0.03906c-0.0273 0.0039-0.83593-3.2695-0.86718-3.2656l-0.84375-8.7461 4.8438-0.46875 1.8711 19.281-4.9297 0.47656-5.0938-7.1719-2.0625-3.707-0.13281 0.04297 0.98437 3.668 0.75 7.707-4.875 0.47266z" fill="#fff200"/><path d="m389.47 49.016-1.8789-5.5078-0.13672 0.01172-0.87109 5.7773zm8.4492 7.457-5.2305 0.50391-1.6289-3.7461-5.1484 0.5-0.82031 3.9844-5.2305 0.50781 4.8594-19.938 4.4375-0.42969z" fill="#fff200"/><path d="m397.33 37.062 4.9023-0.47266 1.4024 14.461 7.8438-0.75781 0.46484 4.8203-12.742 1.2344z" fill="#fff200"/><path d="m69.07 175.24 6.293-0.60937 0.32812 3.3984-6.293 0.60938 0.22656 2.3242 6.8398-0.66407 0.36328 3.707-10.816 1.0469-1.5039-15.523 10.812-1.0508 0.35547 3.6875-6.8398 0.66016z" fill="#fff200"/><path d="m77.406 168.28 3.7266-0.36328 4.3945 6.2617 1.6133 2.9844 0.10938-0.0312c-0.02344 0-0.67578-2.6367-0.69922-2.6328l-0.67969-7.0391 3.9062-0.37891 1.5039 15.527-3.9727 0.38281-4.1016-5.7773-1.6602-2.9844-0.10938 0.0352 0.79688 2.9531 0.60156 6.207-3.9258 0.38282z" fill="#fff200"/><path d="m96.793 172.55 6.293-0.60937 0.32812 3.3984-6.293 0.61328 0.22656 2.3203 6.8398-0.66016 0.35938 3.707-10.813 1.0469-1.5039-15.527 10.813-1.0469 0.35547 3.6836-6.8398 0.66406z" fill="#fff200"/><path d="m112.1 172.2c2.4805-0.24219 2.1367-3.793-0.34375-3.5547l-2.3008 0.22266 0.34375 3.5547zm-1.2734 3.5312-0.70313 0.0664 0.48047 4.9375-3.9688 0.38282-1.5039-15.527 6.2031-0.60156c3.2031-0.30859 5.8242 0.92188 6.2656 4.5508 0.27734 2.875-0.72657 4.6094-2.5547 5.3828l4.7461 4.918-4.8906 0.47657z" fill="#fff200"/><path d="m127.48 168.07c-1.0586-2-4.4766-1.1836-4.2774 0.85547l0.51563 5.3281c0.23437 2.4375 4.7734 1.9727 4.5391-0.4375l-0.0547-0.57031-2.4805 0.23828-0.3164-3.2891 6.25-0.60547 0.375 3.8594c0.34375 3.5742-2.4648 5.6641-5.5781 5.9648-3.0703 0.29687-6.3164-1.2031-6.6602-4.7774l-0.51563-5.3281c-0.33984-3.5117 2.5586-5.5625 5.6289-5.8594 2.0156-0.19531 4.4023 0.41407 5.7148 2.7891z" fill="#fff200"/><path d="m137.49 178.12-0.59375-6.1172-6.3281-8.8828 4.5625-0.44141 3.3594 5.4297 2.2539-5.9727 4.6055-0.44921-4.5274 9.9375 0.59375 6.1172z" fill="#fff200"/><path d="m156.7 172.55c1.3398-0.1289 1.8867-0.86718 1.7891-1.875l-0.47265-4.8476c-0.0937-1.0078-0.79297-1.582-2.1094-1.457l-1.9961 0.19531 0.79297 8.1797zm-1.2773-11.828c3.1133-0.30078 6.1836 0.99609 6.5352 4.6133l0.50391 5.2188c0.34375 3.5742-2.418 5.4141-5.5352 5.6953l-5.8125 0.5625-1.5039-15.527z" fill="#fff200"/><path d="m170.52 166.54c2.4805-0.24219 2.1367-3.793-0.34375-3.5547l-2.3008 0.22266 0.34375 3.5508zm-1.2695 3.5312-0.70313 0.0664 0.47656 4.9375-3.9688 0.38281-1.5039-15.527 6.207-0.60157c3.1992-0.30859 5.8203 0.92188 6.2617 4.5508 0.27734 2.875-0.72657 4.6094-2.5586 5.3828l4.75 4.918-4.8906 0.47656z" fill="#fff200"/><path d="m183.15 173.7-3.9258 0.38282-1.5039-15.527 3.9258-0.38281z" fill="#fff200"/><path d="m184.11 157.94 3.7266-0.35938 4.3906 6.2578 1.6172 2.9883 0.10938-0.0352c-0.0234 4e-3 -0.67578-2.6328-0.69922-2.6289l-0.67969-7.043 3.9024-0.375 1.5039 15.523-3.9688 0.38672-4.1016-5.7773-1.6602-2.9844-0.10937 0.0312 0.79687 2.957 0.60157 6.207-3.9258 0.3789z" fill="#fff200"/><path d="m207.09 155.71 4.8867-0.47266-5.4141 8.0938 6.8984 7.4336-4.9766 0.48438-4.5078-5.1641-0.11719 0.1875 0.52344 5.375-3.9492 0.3789-1.5039-15.523 3.9492-0.38282 0.55468 5.7461z" fill="#fff200"/><path d="m418.53 10.496-222.23 16.586-3.793 27.188z" fill="#fff200"/><path d="m6.6914 79.809 222.23-16.586 3.793-27.188z" fill="#fff200"/><path d="m6.6914 79.809 206.58-29.562 15.648 12.977z" fill="#fdde0b"/><path d="m418.53 10.496-187.32 36.277-12.984-9.2617z" fill="#fdde0b"/><path d="m467.34 140.8-222.23 16.586-3.7969 27.188z" fill="#fff200"/><path d="m55.5 210.11 222.23-16.582 3.793-27.188z" fill="#fff200"/><path d="m55.5 210.11 206.58-29.559 15.648 12.977z" fill="#fdde0b"/><path d="m467.34 140.8-187.32 36.277-12.984-9.2617z" fill="#fdde0b"/></g></g></svg>
