<svg width="7.9375mm" height="7.9375mm" version="1.1" viewBox="0 0 7.9375 7.9375" xmlns="http://www.w3.org/2000/svg"><g transform="translate(-91.634 -137.77)"><g transform="matrix(.26458 0 0 .26458 91.634 137.77)" fill="#fff"><path d="m15 0a15 15 0 0 0-15 15 15 15 0 0 0 15 15 15 15 0 0 0 15-15 15 15 0 0 0-15-15zm2.3008 6.0996c1.1 0 2.0984 0.099609 2.3984 0.099609v2.9004h-1.6992c-1.3 0-1.5996 0.6-1.5996 1.5v2h3.0996l-0.40039 3.2012h-2.6992v8.0996h-3.2012v-8.0996h-2.6992v-3.2012h2.6992v-2.2988c0-2.7 1.7016-4.2012 4.1016-4.2012z" fill="#fff"/></g></g></svg>
