<?xml version="1.0" encoding="UTF-8"?>
<!DOCTYPE svg PUBLIC "-//W3C//DTD SVG 1.1//EN" "http://www.w3.org/Graphics/SVG/1.1/DTD/svg11.dtd">
<svg xmlns="http://www.w3.org/2000/svg" version="1.1" width="1626px" height="1150px" style="shape-rendering:geometricPrecision; text-rendering:geometricPrecision; image-rendering:optimizeQuality; fill-rule:evenodd; clip-rule:evenodd" xmlns:xlink="http://www.w3.org/1999/xlink">
<g><path style="opacity:0.987" fill="#fefffe" d="M -0.5,-0.5 C 214.167,-0.5 428.833,-0.5 643.5,-0.5C 643.5,68.8333 643.5,138.167 643.5,207.5C 624.5,207.5 605.5,207.5 586.5,207.5C 586.5,157.5 586.5,107.5 586.5,57.5C 409.833,57.5 233.167,57.5 56.5,57.5C 56.5,402.167 56.5,746.833 56.5,1091.5C 233.167,1091.5 409.833,1091.5 586.5,1091.5C 586.5,1051.17 586.5,1010.83 586.5,970.5C 605.5,970.5 624.5,970.5 643.5,970.5C 643.5,1030.17 643.5,1089.83 643.5,1149.5C 428.833,1149.5 214.167,1149.5 -0.5,1149.5C -0.5,766.167 -0.5,382.833 -0.5,-0.5 Z"/></g>
<g><path style="opacity:0.985" fill="#fefffe" d="M 588.5,324.5 C 608.167,324.5 627.833,324.5 647.5,324.5C 647.5,399.5 647.5,474.5 647.5,549.5C 627.833,549.5 608.167,549.5 588.5,549.5C 588.5,474.5 588.5,399.5 588.5,324.5 Z"/></g>
<g><path style="opacity:0.982" fill="#fefffe" d="M 735.5,324.5 C 755.511,324.167 775.511,324.5 795.5,325.5C 830.524,370.023 865.358,414.69 900,459.5C 900.5,414.501 900.667,369.501 900.5,324.5C 920.5,324.5 940.5,324.5 960.5,324.5C 960.5,399.5 960.5,474.5 960.5,549.5C 940.497,549.667 920.497,549.5 900.5,549C 865.213,504.257 830.046,459.424 795,414.5C 794.5,459.499 794.333,504.499 794.5,549.5C 774.833,549.5 755.167,549.5 735.5,549.5C 735.5,474.5 735.5,399.5 735.5,324.5 Z"/></g>
<g><path style="opacity:0.983" fill="#fefffe" d="M 687.5,646.5 C 736.38,644.588 771.713,665.255 793.5,708.5C 774.806,716.788 755.973,724.788 737,732.5C 722.075,701.074 698.241,691.574 665.5,704C 650.252,712.654 640.418,725.487 636,742.5C 628.151,770.935 634.317,795.768 654.5,817C 668.304,827.965 683.971,831.965 701.5,829C 720.072,825.594 731.739,814.761 736.5,796.5C 720.514,795.501 704.514,795.167 688.5,795.5C 688.5,780.167 688.5,764.833 688.5,749.5C 727.5,749.5 766.5,749.5 805.5,749.5C 806.267,772.969 802.434,795.636 794,817.5C 772.236,859.397 737.569,880.064 690,879.5C 644.761,879.889 610.094,861.222 586,823.5C 573.499,799.995 568.833,774.995 572,748.5C 579.85,695.652 609.683,662.818 661.5,650C 670.259,648.407 678.926,647.241 687.5,646.5 Z"/></g>
<g><path style="opacity:0.983" fill="#fefffe" d="M 935.5,651.5 C 957.167,651.5 978.833,651.5 1000.5,651.5C 1028.5,726.833 1056.5,802.167 1084.5,877.5C 1063.5,877.667 1042.5,877.5 1021.5,877C 1016.64,864.744 1011.97,852.411 1007.5,840C 980.833,839.333 954.167,839.333 927.5,840C 921.798,852.235 916.798,864.735 912.5,877.5C 891.5,877.5 870.5,877.5 849.5,877.5C 877.967,802.101 906.634,726.767 935.5,651.5 Z M 966.5,725.5 C 967.497,725.47 968.164,725.97 968.5,727C 976.068,749.204 983.735,771.371 991.5,793.5C 975.51,794.666 959.51,794.833 943.5,794C 951.469,771.259 959.136,748.426 966.5,725.5 Z"/></g>
<g><path style="opacity:0.982" fill="#fefffe" d="M 1179.5,651.5 C 1199.08,651.174 1218.58,651.507 1238,652.5C 1252.62,691.69 1267.62,730.69 1283,769.5C 1298.94,730.613 1314.61,691.613 1330,652.5C 1349.76,651.507 1369.59,651.174 1389.5,651.5C 1400.51,726.557 1411.84,801.557 1423.5,876.5C 1403.51,877.5 1383.51,877.833 1363.5,877.5C 1358.81,835.306 1353.31,793.306 1347,751.5C 1329.6,793.207 1312.1,834.874 1294.5,876.5C 1286.19,877.498 1277.86,877.831 1269.5,877.5C 1253.24,834.974 1236.41,792.64 1219,750.5C 1212.51,792.796 1206.34,835.129 1200.5,877.5C 1180.83,877.5 1161.17,877.5 1141.5,877.5C 1153.95,802.122 1166.62,726.789 1179.5,651.5 Z"/></g>
<g><path style="opacity:0.974" fill="#fefffe" d="M 1625.5,651.5 C 1625.5,668.5 1625.5,685.5 1625.5,702.5C 1602.5,702.5 1579.5,702.5 1556.5,702.5C 1556.5,714.5 1556.5,726.5 1556.5,738.5C 1578.17,738.5 1599.83,738.5 1621.5,738.5C 1621.5,755.5 1621.5,772.5 1621.5,789.5C 1599.83,789.5 1578.17,789.5 1556.5,789.5C 1556.5,801.833 1556.5,814.167 1556.5,826.5C 1579.5,826.5 1602.5,826.5 1625.5,826.5C 1625.5,843.5 1625.5,860.5 1625.5,877.5C 1582.5,877.5 1539.5,877.5 1496.5,877.5C 1496.5,802.167 1496.5,726.833 1496.5,651.5C 1539.5,651.5 1582.5,651.5 1625.5,651.5 Z"/></g>
</svg>
