<svg width="7.94mm" height="7.94mm" version="1.1" viewBox="0 0 7.94 7.94" xmlns="http://www.w3.org/2000/svg"><path d="m3.97 0a3.97 3.97 0 0 0-3.97 3.97 3.97 3.97 0 0 0 3.97 3.97 3.97 3.97 0 0 0 3.97-3.97 3.97 3.97 0 0 0-3.97-3.97zm0 1.32c0.719 0 0.809 0.00309 1.09 0.016 0.282 0.0128 0.474 0.0576 0.642 0.123a1.3 1.3 0 0 1 0.469 0.305 1.3 1.3 0 0 1 0.305 0.469c0.0654 0.168 0.11 0.361 0.123 0.642 0.0129 0.282 0.016 0.372 0.016 1.09 0 0.719-0.00314 0.809-0.016 1.09-0.0129 0.282-0.0576 0.474-0.123 0.642a1.35 1.35 0 0 1-0.774 0.774c-0.168 0.0654-0.361 0.11-0.642 0.123-0.282 0.0129-0.372 0.016-1.09 0.016-0.719 0-0.809-0.00314-1.09-0.016-0.282-0.0129-0.474-0.0576-0.642-0.123a1.3 1.3 0 0 1-0.469-0.305 1.3 1.3 0 0 1-0.305-0.469c-0.0654-0.168-0.11-0.361-0.123-0.642-0.0129-0.282-0.016-0.372-0.016-1.09 0-0.719 0.00309-0.809 0.016-1.09 0.0128-0.282 0.0576-0.474 0.123-0.642a1.3 1.3 0 0 1 0.305-0.469 1.3 1.3 0 0 1 0.469-0.305c0.168-0.0654 0.361-0.11 0.642-0.123 0.282-0.0129 0.372-0.016 1.09-0.016zm0 0.477c-0.706 0-0.79 0.00226-1.07 0.015-0.258 0.0118-0.398 0.0552-0.491 0.0915a0.82 0.82 0 0 0-0.304 0.198 0.82 0.82 0 0 0-0.198 0.304c-0.0362 0.0932-0.0797 0.233-0.0915 0.491-0.0127 0.279-0.0155 0.363-0.0155 1.07 0 0.706 0.00277 0.79 0.0155 1.07 0.0118 0.258 0.0552 0.398 0.0915 0.491a0.82 0.82 0 0 0 0.198 0.304 0.82 0.82 0 0 0 0.304 0.198c0.0932 0.0362 0.233 0.0797 0.491 0.0915 0.279 0.0127 0.363 0.0155 1.07 0.0155 0.707 0 0.79-0.00277 1.07-0.0155 0.258-0.0118 0.398-0.0552 0.491-0.0915a0.876 0.876 0 0 0 0.502-0.502c0.0362-0.0932 0.0797-0.233 0.0915-0.491 0.0127-0.279 0.015-0.363 0.015-1.07 0-0.706-0.00226-0.79-0.015-1.07-0.0118-0.258-0.0552-0.398-0.0915-0.491a0.82 0.82 0 0 0-0.198-0.304 0.82 0.82 0 0 0-0.304-0.198c-0.0932-0.0362-0.233-0.0797-0.491-0.0915-0.279-0.0127-0.363-0.015-1.07-0.015zm1.41 0.439a0.317 0.317 0 0 1 0.317 0.317 0.317 0.317 0 0 1-0.317 0.317 0.317 0.317 0 0 1-0.317-0.317 0.317 0.317 0 0 1 0.317-0.317zm-1.41 0.371a1.36 1.36 0 0 1 1.36 1.36 1.36 1.36 0 1 1-1.36-1.36zm0 0.476a0.882 0.882 0 0 0-0.624 0.258 0.882 0.882 0 0 0 0.624 1.51 0.882 0.882 0 0 0 0.882-0.882 0.882 0.882 0 0 0-0.882-0.882z" fill="#fff" stroke-width="0"/></svg>
