<svg width="95mm" height="14.9mm" version="1.1" viewBox="0 0 95 14.9" xmlns="http://www.w3.org/2000/svg"><g transform="translate(-6.74 -7.19)" fill="#fff" stroke-width="0"><path d="m74.7 7.19v1.92h1.94v5.37h2.19v-5.37h1.93v-1.92zm7.46 0-2.66 7.29h2.48l0.26-0.853h2.6l0.26 0.853h2.48l-2.66-7.29zm5.81 0v7.29h4.92l4.68e-4 -1.92h-2.74v-5.37zm-4.43 2.16 0.714 2.35h-1.43zm7.54 5.46c-2.26 0-3.97 1.52-3.97 3.77 0 1.72 1.01 3.02 2.49 3.53h2.85c1.02-0.39 1.61-1.19 1.91-1.89l-1.88-0.873c-0.184 0.568-0.747 1.06-1.4 1.06-1.05 0-1.75-0.808-1.75-1.82 0-1.02 0.703-1.83 1.75-1.83h4.68e-4c0.649 0 1.21 0.491 1.4 1.06l1.88-0.884c-0.434-1-1.39-2.12-3.28-2.12zm-16.4 0.12v1.92h1.94v5.26h2.19v-5.26h1.93v-1.92zm6.55 0v7.18h5.48v-1.82h-3.29v-0.797h3.21v-1.92h-3.21v-0.72h3.29v-1.92zm13.5 0v7.18h2.19v-2.68h2.59v2.68h2.19v-7.18h-2.19v2.58h-2.59v-2.58z"/><path d="m69 7.2h0.265v14.9h-0.265z"/><path transform="scale(1.01 .989)" d="m48.2 9.47c-0.0501 0-0.0918 0.00209-0.125 0.00627-0.0334 0.00418-0.0604 0.0104-0.0813 0.0188-0.0188 0.00836-0.0326 0.0188-0.0409 0.0313-0.0063 0.0125-0.0092 0.0272-0.0092 0.0439v4.19c0 0.0167 0.0029 0.0313 0.0092 0.0439 0.0084 0.0104 0.0221 0.0198 0.0409 0.0282 0.0209 0.0084 0.0479 0.0146 0.0813 0.0188 0.0334 0.0042 0.0751 0.0063 0.125 0.0063 0.0522 0 0.0954-0.0021 0.129-0.0063 0.0334-0.0042 0.0594-0.0104 0.0782-0.0188 0.0188-0.0084 0.032-0.0178 0.0404-0.0282 0.0084-0.0125 0.0128-0.0272 0.0128-0.0439v-1.56l1.19 1.56c0.0125 0.0188 0.0258 0.0355 0.0404 0.0501 0.0167 0.0125 0.0378 0.023 0.0629 0.0313 0.0251 0.0063 0.0555 0.0104 0.091 0.0125 0.0376 0.0042 0.0842 0.0063 0.141 0.0063 0.0543 0 0.0995-0.0021 0.135-0.0063 0.0355-0.0042 0.0625-0.0104 0.0813-0.0188 0.0209-0.0084 0.0356-0.0188 0.044-0.0313 0.0084-0.0125 0.0128-0.0272 0.0128-0.0439 0-0.0188-0.0064-0.0386-0.0189-0.0595-0.0104-0.023-0.0291-0.0522-0.0562-0.0877l-1.15-1.49 1.02-1.02c0.0313-0.0334 0.0534-0.0627 0.066-0.0877 0.0146-0.0251 0.022-0.0501 0.022-0.0752 0-0.0188-0.0054-0.0334-0.0158-0.0439-0.0084-0.0125-0.0241-0.0219-0.047-0.0282-0.0209-0.0084-0.0488-0.0136-0.0844-0.0157-0.0355-0.0042-0.0792-0.0063-0.131-0.0063-0.0501 0-0.0933 0.0021-0.129 0.0063-0.0355 0.0021-0.0664 0.0084-0.0936 0.0188-0.0251 0.0084-0.0472 0.0198-0.066 0.0345-0.0188 0.0125-0.0365 0.0292-0.0532 0.0501l-1.07 1.17v-2.55c0-0.0167-0.0044-0.0313-0.0128-0.0439-0.0084-0.0125-0.0216-0.023-0.0404-0.0313-0.0188-0.00836-0.0448-0.0146-0.0782-0.0188-0.0334-0.00418-0.0766-0.00627-0.129-0.00627zm-7.36 0.0125c-0.0501 0-0.0918 0.00313-0.125 0.0094-0.0313 0.00418-0.0573 0.0104-0.0782 0.0188-0.0209 0.00627-0.0356 0.0167-0.044 0.0313-0.0063 0.0125-0.0097 0.0261-0.0097 0.0407v1.64c-0.134-0.14-0.269-0.245-0.407-0.316-0.136-0.0731-0.286-0.11-0.451-0.11-0.198 0-0.374 0.0376-0.526 0.113-0.15 0.0731-0.277 0.179-0.379 0.316-0.102 0.138-0.179 0.305-0.232 0.501-0.0522 0.194-0.0787 0.413-0.0787 0.655 0 0.205 0.0211 0.4 0.0629 0.586 0.0418 0.184 0.108 0.345 0.197 0.483 0.0919 0.136 0.211 0.244 0.357 0.326 0.146 0.0794 0.322 0.119 0.529 0.119 0.19 0 0.365-0.0449 0.524-0.135 0.161-0.0898 0.315-0.215 0.464-0.376v0.373c0 0.0167 0.0039 0.0313 0.0123 0.0439 0.0084 0.0125 0.0221 0.023 0.0409 0.0313 0.0188 0.0063 0.0428 0.0115 0.0721 0.0157 0.0292 0.0042 0.0656 0.0063 0.109 0.0063 0.0418 0 0.0776-0.0021 0.107-0.0063 0.0292-0.0042 0.0523-0.0094 0.069-0.0157 0.0188-0.0084 0.0311-0.0188 0.0373-0.0313 0.0084-0.0125 0.0128-0.0272 0.0128-0.0439v-4.17c0-0.0146-0.0054-0.0282-0.0158-0.0407-0.0084-0.0146-0.0221-0.0251-0.0409-0.0313-0.0188-0.00836-0.0448-0.0146-0.0782-0.0188-0.0334-0.00627-0.0761-0.0094-0.128-0.0094zm-16.4 0.279c-0.048 0-0.0898 0.00313-0.125 0.0094-0.0334 0.00418-0.0619 0.0104-0.0849 0.0188-0.0209 0.00627-0.0366 0.0157-0.047 0.0282-0.0084 0.0125-0.0123 0.0272-0.0123 0.0439v3.89c0 0.0167 0.0039 0.0313 0.0123 0.0439 0.0084 0.0125 0.0231 0.023 0.044 0.0313 0.0209 0.0063 0.0494 0.0115 0.0849 0.0157 0.0355 0.0063 0.0782 0.0094 0.128 0.0094 0.0522 0 0.0949-0.0031 0.128-0.0094 0.0355-0.0042 0.064-0.0094 0.0849-0.0157 0.0209-0.0084 0.0351-0.0188 0.0435-0.0313 0.0084-0.0125 0.0128-0.0272 0.0128-0.0439v-3.89c0-0.0167-0.0044-0.0313-0.0128-0.0439-0.0084-0.0125-0.0226-0.0219-0.0435-0.0282-0.0209-0.00836-0.0494-0.0146-0.0849-0.0188-0.0334-0.00627-0.0761-0.0094-0.128-0.0094zm0.962 0.0188c-0.0167 0-0.0324 0.00418-0.047 0.0125-0.0125 0.00836-0.0228 0.0219-0.0312 0.0407-0.0084 0.0188-0.0157 0.0439-0.022 0.0752-0.0042 0.0292-0.0061 0.0637-0.0061 0.103 0 0.0397 2e-3 0.0742 0.0061 0.103 0.0063 0.0292 0.0136 0.0533 0.022 0.0721 0.0084 0.0167 0.0187 0.0292 0.0312 0.0376 0.0146 0.0084 0.0303 0.0125 0.047 0.0125h1.14v3.52c0 0.0167 0.0039 0.0313 0.0123 0.0439 0.0084 0.0125 0.0231 0.023 0.044 0.0313 0.0209 0.0063 0.0494 0.0115 0.0849 0.0157 0.0355 0.0063 0.0782 0.0094 0.128 0.0094 0.0522 0 0.0949-0.0031 0.128-0.0094 0.0355-0.0042 0.064-0.0094 0.0849-0.0157 0.0209-0.0084 0.0356-0.0188 0.044-0.0313 0.0084-0.0125 0.0123-0.0272 0.0123-0.0439v-3.52h1.14c0.0167 0 0.0314-0.0042 0.044-0.0125 0.0146-0.0084 0.0259-0.0209 0.0343-0.0376 0.0104-0.0188 0.0178-0.0428 0.022-0.0721 0.0042-0.0292 0.0061-0.0637 0.0061-0.103 0-0.0397-2e-3 -0.0742-0.0061-0.103-0.0042-0.0313-0.0115-0.0564-0.022-0.0752-0.0084-0.0188-0.0196-0.0324-0.0343-0.0407-0.0125-0.00836-0.0273-0.0125-0.044-0.0125zm5.3 0.304c-0.0501 0-0.0918 0.0021-0.125 0.0063-0.0334 0.0042-0.0604 0.0115-0.0813 0.0219-0.0188 0.0084-0.0326 0.0188-0.0409 0.0313-0.0063 0.0125-0.0092 0.0261-0.0092 0.0407v0.671h-0.392c-0.0167 0-0.0324 0.0042-0.047 0.0125-0.0125 0.0063-0.0234 0.0188-0.0317 0.0376-0.0084 0.0167-0.0157 0.0386-0.022 0.0658-0.0042 0.0272-0.0061 0.0606-0.0061 0.1 0 0.0752 0.0093 0.13 0.0281 0.163 0.0188 0.0334 0.0438 0.0501 0.0752 0.0501h0.395v1.65c0 0.163 0.0142 0.305 0.0435 0.426 0.0313 0.119 0.0804 0.218 0.147 0.298 0.0668 0.0773 0.153 0.136 0.257 0.175 0.104 0.0376 0.23 0.0564 0.376 0.0564 0.048 0 0.0961-0.0031 0.144-0.0094 0.048-0.0063 0.0932-0.0146 0.135-0.0251 0.0439-0.0084 0.0826-0.0198 0.116-0.0345 0.0334-0.0146 0.0584-0.0303 0.0752-0.047 0.0167-0.0167 0.029-0.0428 0.0373-0.0783 0.0084-0.0355 0.0128-0.0836 0.0128-0.144 0-0.0376-0.0025-0.0689-0.0066-0.094-0.0042-0.0251-0.0091-0.0449-0.0153-0.0595-0.0042-0.0146-0.0115-0.024-0.022-0.0282-0.0084-0.0063-0.0177-0.0094-0.0281-0.0094-0.0167 0-0.0359 0.0052-0.0568 0.0157-0.0209 0.0084-0.0459 0.0178-0.0752 0.0282-0.0292 0.0104-0.0626 0.0209-0.1 0.0313-0.0376 0.0084-0.0803 0.0125-0.128 0.0125-0.148 0-0.252-0.0491-0.31-0.147-0.0564-0.1-0.0844-0.248-0.0844-0.442v-1.57h0.724c0.0313 0 0.0569-0.0167 0.0757-0.0501 0.0188-0.0334 0.0281-0.0877 0.0281-0.163 0-0.0397-0.0025-0.0731-0.0066-0.1-0.0042-0.0272-0.011-0.0491-0.0215-0.0658-0.0084-0.0188-0.0192-0.0313-0.0317-0.0376-0.0125-0.0084-0.0273-0.0125-0.044-0.0125h-0.724v-0.671c0-0.0146-0.0044-0.0282-0.0128-0.0407-0.0084-0.0125-0.0216-0.023-0.0404-0.0313-0.0188-0.0104-0.0453-0.0178-0.0787-0.0219-0.0334-0.0042-0.0761-0.0063-0.128-0.0063zm2.87 0.711c-0.207 0-0.394 0.0366-0.561 0.11-0.167 0.071-0.31 0.174-0.43 0.31-0.117 0.134-0.207 0.298-0.269 0.492-0.0627 0.192-0.0941 0.409-0.0941 0.652 0 0.255 0.0304 0.478 0.091 0.671 0.0606 0.192 0.15 0.352 0.269 0.479s0.265 0.224 0.439 0.288c0.175 0.0648 0.379 0.0971 0.611 0.0971 0.134 0 0.259-0.0104 0.376-0.0313 0.119-0.0188 0.224-0.0407 0.313-0.0658 0.0898-0.0251 0.163-0.0501 0.219-0.0752 0.0564-0.0272 0.0898-0.046 0.1-0.0564 0.0125-0.0125 0.0219-0.0251 0.0281-0.0376 0.0084-0.0125 0.0138-0.0261 0.0158-0.0407 0.0042-0.0167 0.0071-0.0345 0.0092-0.0533 0.0021-0.0209 0.0036-0.0449 0.0036-0.0721 0-0.0376-0.0025-0.0689-0.0066-0.094-0.0021-0.0272-6e-3 -0.048-0.0123-0.0627-0.0063-0.0146-0.0156-0.0251-0.0281-0.0313-0.0104-0.0084-0.0232-0.0125-0.0378-0.0125-0.0251 0-0.0624 0.0115-0.112 0.0345-0.048 0.0209-0.111 0.0449-0.188 0.0721-0.0752 0.0272-0.165 0.0522-0.269 0.0752-0.104 0.0209-0.224 0.0313-0.357 0.0313-0.169 0-0.312-0.024-0.429-0.0721s-0.212-0.117-0.285-0.207c-0.0731-0.0898-0.126-0.197-0.157-0.323-0.0313-0.125-0.0465-0.266-0.0465-0.423h1.85c0.0522 0 0.0984-0.0167 0.138-0.0501 0.0418-0.0355 0.0624-0.094 0.0624-0.175v-0.094c0-0.184-0.0235-0.356-0.0716-0.517-0.046-0.163-0.119-0.304-0.219-0.423-0.1-0.121-0.229-0.217-0.386-0.288-0.155-0.071-0.343-0.107-0.564-0.107zm3.04 0c-0.109 0-0.216 0.0104-0.323 0.0313-0.107 0.0188-0.205 0.0439-0.295 0.0752-0.0898 0.0292-0.169 0.0627-0.238 0.1-0.0689 0.0355-0.118 0.0668-0.147 0.094-0.0272 0.0272-0.0448 0.0564-0.0532 0.0877-0.0063 0.0292-0.0092 0.07-0.0092 0.122 0 0.0313 2e-3 0.0606 0.0061 0.0877 0.0042 0.0251 0.0106 0.046 0.0189 0.0627 0.0104 0.0167 0.0217 0.0292 0.0343 0.0376 0.0125 0.0084 0.0273 0.0125 0.044 0.0125 0.0251 0 0.0624-0.0146 0.112-0.0439 0.0522-0.0313 0.116-0.0648 0.191-0.1 0.0773-0.0376 0.166-0.071 0.266-0.1 0.102-0.0313 0.217-0.047 0.345-0.047 0.119 0 0.22 0.0146 0.301 0.0439 0.0815 0.0272 0.147 0.0689 0.197 0.125 0.0522 0.0543 0.0895 0.123 0.112 0.207 0.023 0.0836 0.0348 0.18 0.0348 0.288v0.219h-0.389c-0.219 0-0.417 0.0198-0.592 0.0595-0.175 0.0376-0.324 0.095-0.445 0.172-0.121 0.0773-0.214 0.174-0.279 0.291s-0.0972 0.255-0.0972 0.414c0 0.136 0.0231 0.257 0.069 0.363 0.048 0.107 0.114 0.196 0.197 0.269 0.0856 0.0731 0.188 0.128 0.307 0.166 0.121 0.0397 0.256 0.0595 0.404 0.0595 0.169 0 0.329-0.0366 0.48-0.11 0.153-0.0731 0.29-0.175 0.414-0.307v0.282c0 0.0251 0.0069 0.0439 0.0215 0.0564 0.0146 0.0125 0.0377 0.0219 0.069 0.0282 0.0334 0.0063 0.0776 0.0094 0.132 0.0094 0.0564 0 0.0991-0.0031 0.128-0.0094 0.0292-0.0063 0.0523-0.0157 0.069-0.0282s0.025-0.0313 0.025-0.0564v-1.9c0-0.175-0.0201-0.329-0.0598-0.461-0.0397-0.132-0.103-0.241-0.191-0.329-0.0877-0.0898-0.203-0.158-0.345-0.204-0.142-0.046-0.314-0.0689-0.517-0.0689zm9.68 0c-0.171 0-0.322 0.023-0.451 0.0689-0.127 0.046-0.234 0.108-0.32 0.185-0.0856 0.0752-0.15 0.164-0.194 0.266-0.0418 0.1-0.0624 0.206-0.0624 0.316 0 0.125 0.0196 0.233 0.0593 0.323 0.0418 0.0898 0.0963 0.167 0.163 0.232 0.0668 0.0648 0.142 0.12 0.225 0.166 0.0856 0.0439 0.173 0.0836 0.26 0.119 0.0898 0.0355 0.176 0.07 0.26 0.103 0.0836 0.0313 0.159 0.0679 0.225 0.11 0.0668 0.0418 0.12 0.0898 0.16 0.144 0.0418 0.0543 0.0629 0.121 0.0629 0.201 0 0.0773-0.0147 0.144-0.044 0.201-0.0272 0.0564-0.0669 0.103-0.119 0.141-0.0522 0.0355-0.114 0.0627-0.185 0.0815-0.071 0.0188-0.15 0.0282-0.238 0.0282-0.117 0-0.221-0.0136-0.31-0.0407-0.0898-0.0292-0.168-0.0606-0.235-0.094-0.0648-0.0334-0.12-0.0637-0.166-0.0909-0.0439-0.0292-0.0772-0.0439-0.1-0.0439-0.0146 0-0.0279 0.0042-0.0404 0.0125-0.0104 0.0063-0.0188 0.0178-0.0251 0.0345-0.0063 0.0167-0.0117 0.0386-0.0158 0.0658-0.0042 0.0272-0.0061 0.0606-0.0061 0.1 0 0.0648 0.0049 0.116 0.0153 0.154 0.0104 0.0376 0.0271 0.0668 0.0501 0.0877s0.0598 0.0449 0.11 0.0721c0.0501 0.0251 0.11 0.0501 0.182 0.0752 0.0731 0.023 0.155 0.0418 0.244 0.0564 0.0919 0.0167 0.188 0.0251 0.288 0.0251 0.163 0 0.313-0.0198 0.448-0.0595 0.136-0.0397 0.253-0.0982 0.351-0.175 0.0982-0.0773 0.173-0.172 0.225-0.285 0.0543-0.113 0.0813-0.241 0.0813-0.385 0-0.121-0.0206-0.226-0.0624-0.313-0.0397-0.0877-0.0932-0.163-0.16-0.226-0.0668-0.0627-0.144-0.116-0.232-0.16-0.0856-0.0439-0.174-0.0836-0.263-0.119-0.0877-0.0355-0.175-0.07-0.26-0.103-0.0856-0.0334-0.162-0.071-0.229-0.113-0.0668-0.0418-0.121-0.0898-0.163-0.144-0.0418-0.0564-0.0624-0.125-0.0624-0.207 0-0.0585 0.0103-0.113 0.0312-0.163 0.023-0.0501 0.0554-0.093 0.0972-0.128 0.0439-0.0376 0.0993-0.0658 0.166-0.0846 0.0668-0.0209 0.144-0.0313 0.232-0.0313 0.0982 0 0.185 0.0115 0.26 0.0345 0.0773 0.023 0.144 0.048 0.2 0.0752 0.0564 0.0251 0.103 0.0491 0.138 0.0721 0.0355 0.023 0.0625 0.0345 0.0813 0.0345 0.0125 0 0.0243-0.0031 0.0348-0.0094 0.0104-0.0084 0.0188-0.0209 0.025-0.0376 0.0084-0.0167 0.0132-0.0376 0.0153-0.0627 0.0042-0.0272 0.0066-0.0585 0.0066-0.094 0-0.0334-0.0025-0.0616-0.0066-0.0846-0.0021-0.023-5e-3 -0.0418-0.0092-0.0564-0.0021-0.0167-0.0075-0.0313-0.0158-0.0439-0.0063-0.0125-0.0205-0.0272-0.0435-0.0439-0.0209-0.0167-0.0533-0.0355-0.0972-0.0564-0.0418-0.023-0.0933-0.0439-0.154-0.0627-0.0606-0.0188-0.128-0.0345-0.204-0.047-0.0752-0.0125-0.15-0.0188-0.225-0.0188zm5.58 0c-0.24 0-0.45 0.0386-0.63 0.116-0.18 0.0773-0.33 0.186-0.451 0.326-0.119 0.14-0.209 0.307-0.269 0.501-0.0585 0.192-0.088 0.403-0.088 0.633 0 0.238 0.0285 0.451 0.0849 0.639 0.0564 0.188 0.142 0.348 0.257 0.479 0.115 0.132 0.258 0.232 0.43 0.301 0.173 0.0689 0.376 0.103 0.608 0.103 0.238 0 0.447-0.0386 0.627-0.116 0.182-0.0794 0.332-0.189 0.451-0.329 0.121-0.14 0.212-0.306 0.273-0.498 0.0606-0.194 0.091-0.406 0.091-0.636 0-0.236-0.0294-0.448-0.088-0.636-0.0564-0.188-0.142-0.348-0.257-0.479s-0.259-0.232-0.433-0.301c-0.171-0.0689-0.373-0.103-0.605-0.103zm3.56 0c-0.161 0-0.32 0.0418-0.479 0.125-0.157 0.0815-0.315 0.211-0.473 0.389v-0.373c0-0.0167-0.0039-0.0303-0.0123-0.0407-0.0063-0.0125-0.0181-0.023-0.0348-0.0313-0.0167-0.0104-0.0408-0.0167-0.0721-0.0188-0.0292-0.0042-0.0665-0.0063-0.112-0.0063-0.048 0-0.0868 0.0021-0.116 0.0063-0.0292 0.0021-0.0533 0.0084-0.0721 0.0188-0.0188 0.0084-0.0311 0.0188-0.0373 0.0313-0.0063 0.0104-0.0097 0.024-0.0097 0.0407v2.82c0 0.0167 0.0034 0.0313 0.0097 0.0439 0.0084 0.0104 0.0216 0.0198 0.0404 0.0282 0.0209 0.0084 0.0484 0.0146 0.0818 0.0188 0.0334 0.0042 0.0751 0.0063 0.125 0.0063 0.0522 0 0.0949-0.0021 0.128-0.0063 0.0334-0.0042 0.0594-0.0104 0.0782-0.0188 0.0188-0.0084 0.0326-0.0178 0.0409-0.0282 0.0084-0.0125 0.0123-0.0272 0.0123-0.0439v-1.97c0.142-0.178 0.278-0.312 0.408-0.404 0.13-0.0919 0.259-0.138 0.389-0.138 0.1 0 0.188 0.0188 0.263 0.0564 0.0773 0.0376 0.14 0.0919 0.188 0.163 0.048 0.071 0.0849 0.156 0.11 0.254 0.0251 0.0982 0.0373 0.228 0.0373 0.389v1.65c0 0.0167 0.0044 0.0313 0.0128 0.0439 0.0084 0.0104 0.0221 0.0198 0.0409 0.0282 0.0188 0.0084 0.0448 0.0146 0.0782 0.0188 0.0334 0.0042 0.0761 0.0063 0.128 0.0063 0.0501 0 0.0918-0.0021 0.125-0.0063 0.0334-0.0042 0.0594-0.0104 0.0782-0.0188 0.0188-0.0084 0.0326-0.0178 0.0409-0.0282 0.0084-0.0125 0.0128-0.0272 0.0128-0.0439v-1.72c0-0.201-0.0182-0.372-0.0537-0.514-0.0334-0.144-0.0894-0.269-0.169-0.376-0.0794-0.107-0.184-0.191-0.313-0.254-0.127-0.0648-0.285-0.0971-0.473-0.0971zm3.37 0c-0.161 0-0.32 0.0418-0.479 0.125-0.157 0.0815-0.315 0.211-0.473 0.389v-0.373c0-0.0167-0.0039-0.0303-0.0123-0.0407-0.0063-0.0125-0.0181-0.023-0.0348-0.0313-0.0167-0.0104-0.0402-0.0167-0.0716-0.0188-0.0292-0.0042-0.067-0.0063-0.113-0.0063-0.048 0-0.0868 0.0021-0.116 0.0063-0.0292 0.0021-0.0533 0.0084-0.0721 0.0188-0.0188 0.0084-0.0311 0.0188-0.0373 0.0313-0.0063 0.0104-0.0097 0.024-0.0097 0.0407v2.82c0 0.0167 0.0034 0.0313 0.0097 0.0439 0.0084 0.0104 0.0216 0.0198 0.0404 0.0282 0.0209 0.0084 0.0484 0.0146 0.0818 0.0188 0.0334 0.0042 0.0751 0.0063 0.125 0.0063 0.0522 0 0.0949-0.0021 0.128-0.0063 0.0334-0.0042 0.0594-0.0104 0.0782-0.0188 0.0188-0.0084 0.0326-0.0178 0.0409-0.0282 0.0084-0.0125 0.0123-0.0272 0.0123-0.0439v-1.97c0.142-0.178 0.278-0.312 0.408-0.404 0.13-0.0919 0.259-0.138 0.389-0.138 0.1 0 0.188 0.0188 0.263 0.0564 0.0773 0.0376 0.14 0.0919 0.188 0.163 0.048 0.071 0.0844 0.156 0.109 0.254 0.0251 0.0982 0.0378 0.228 0.0378 0.389v1.65c0 0.0167 0.0039 0.0313 0.0123 0.0439 0.0084 0.0104 0.0221 0.0198 0.0409 0.0282 0.0188 0.0084 0.0448 0.0146 0.0782 0.0188 0.0334 0.0042 0.0761 0.0063 0.128 0.0063 0.0501 0 0.0918-0.0021 0.125-0.0063 0.0334-0.0042 0.0599-0.0104 0.0787-0.0188 0.0188-0.0084 0.032-0.0178 0.0404-0.0282 0.0084-0.0125 0.0128-0.0272 0.0128-0.0439v-1.72c0-0.201-0.0177-0.372-0.0532-0.514-0.0334-0.144-0.0899-0.269-0.169-0.376-0.0794-0.107-0.184-0.191-0.313-0.254-0.127-0.0648-0.285-0.0971-0.473-0.0971zm2.96 0c-0.109 0-0.216 0.0104-0.323 0.0313-0.107 0.0188-0.205 0.0439-0.295 0.0752-0.0898 0.0292-0.169 0.0627-0.238 0.1-0.0689 0.0355-0.118 0.0668-0.147 0.094-0.0272 0.0272-0.0448 0.0564-0.0532 0.0877-0.0063 0.0292-0.0097 0.07-0.0097 0.122 0 0.0313 2e-3 0.0606 0.0061 0.0877 0.0042 0.0251 0.0106 0.046 0.0189 0.0627 0.0104 0.0167 0.0222 0.0292 0.0348 0.0376 0.0125 0.0084 0.0268 0.0125 0.0435 0.0125 0.0251 0 0.0629-0.0146 0.113-0.0439 0.0522-0.0313 0.116-0.0648 0.191-0.1 0.0773-0.0376 0.166-0.071 0.266-0.1 0.102-0.0313 0.217-0.047 0.345-0.047 0.119 0 0.219 0.0146 0.301 0.0439 0.0815 0.0272 0.147 0.0689 0.197 0.125 0.0522 0.0543 0.09 0.123 0.113 0.207 0.023 0.0836 0.0343 0.18 0.0343 0.288v0.219h-0.389c-0.219 0-0.417 0.0198-0.592 0.0595-0.175 0.0376-0.324 0.095-0.445 0.172-0.121 0.0773-0.214 0.174-0.279 0.291-0.0648 0.117-0.0972 0.255-0.0972 0.414 0 0.136 0.0226 0.257 0.0685 0.363 0.048 0.107 0.114 0.196 0.197 0.269 0.0856 0.0731 0.188 0.128 0.307 0.166 0.121 0.0397 0.256 0.0595 0.404 0.0595 0.169 0 0.329-0.0366 0.479-0.11 0.153-0.0731 0.29-0.175 0.414-0.307v0.282c0 0.0251 0.0074 0.0439 0.022 0.0564 0.0146 0.0125 0.0377 0.0219 0.069 0.0282 0.0334 0.0063 0.0771 0.0094 0.131 0.0094 0.0564 0 0.0996-0.0031 0.129-0.0094 0.0292-0.0063 0.0518-0.0157 0.0685-0.0282s0.0251-0.0313 0.0251-0.0564v-1.9c0-0.175-0.0196-0.329-0.0593-0.461-0.0397-0.132-0.103-0.241-0.191-0.329-0.0877-0.0898-0.203-0.158-0.345-0.204-0.142-0.046-0.314-0.0689-0.517-0.0689zm-19.5 0.0439c-0.0501 0-0.0918 0.0021-0.125 0.0063-0.0334 0.0021-0.0609 0.0084-0.0818 0.0188-0.0209 0.0084-0.0351 0.0188-0.0435 0.0313-0.0063 0.0104-0.0097 0.024-0.0097 0.0407v1.71c0 0.205 0.0167 0.379 0.0501 0.523 0.0355 0.142 0.0929 0.267 0.172 0.376 0.0794 0.107 0.183 0.191 0.31 0.254 0.13 0.0627 0.289 0.094 0.477 0.094 0.161 0 0.319-0.0407 0.476-0.122s0.316-0.211 0.477-0.389v0.373c0 0.0167 0.0029 0.0313 0.0092 0.0439 0.0063 0.0104 0.0176 0.0198 0.0343 0.0282 0.0188 0.0084 0.0428 0.0146 0.0721 0.0188 0.0313 0.0042 0.0711 0.0063 0.119 0.0063 0.0439 0 0.0807-0.0021 0.11-0.0063 0.0313-0.0042 0.0564-0.0104 0.0752-0.0188 0.0188-0.0084 0.0311-0.0178 0.0373-0.0282 0.0084-0.0125 0.0128-0.0272 0.0128-0.0439v-2.82c0-0.0167-0.0054-0.0303-0.0158-0.0407-0.0084-0.0125-0.0221-0.023-0.0409-0.0313-0.0188-0.0104-0.0448-0.0167-0.0782-0.0188-0.0334-0.0042-0.0751-0.0063-0.125-0.0063-0.0522 0-0.0949 0.0021-0.128 0.0063-0.0313 0.0021-0.0573 0.0084-0.0782 0.0188-0.0209 0.0084-0.0356 0.0188-0.044 0.0313-0.0063 0.0104-0.0097 0.024-0.0097 0.0407v1.97c-0.144 0.178-0.281 0.312-0.41 0.404-0.127 0.0919-0.256 0.138-0.386 0.138-0.1 0-0.188-0.0188-0.263-0.0564-0.0752-0.0397-0.138-0.094-0.188-0.163-0.048-0.071-0.0844-0.156-0.109-0.254-0.023-0.1-0.0348-0.233-0.0348-0.398v-1.64c0-0.0167-0.0039-0.0303-0.0123-0.0407-0.0084-0.0125-0.0231-0.023-0.044-0.0313-0.0188-0.0104-0.0448-0.0167-0.0782-0.0188-0.0334-0.0042-0.0751-0.0063-0.125-0.0063zm-8.74 0.36c0.249 0 0.436 0.0773 0.561 0.232 0.127 0.155 0.188 0.368 0.182 0.639h-1.53c0.0042-0.115 0.0238-0.225 0.0593-0.329 0.0355-0.107 0.0856-0.2 0.15-0.279 0.0648-0.0794 0.145-0.143 0.241-0.191 0.0961-0.048 0.208-0.0721 0.335-0.0721zm18.3 0.0282c0.165 0 0.303 0.0303 0.414 0.0909 0.111 0.0585 0.199 0.139 0.263 0.241s0.111 0.221 0.138 0.357c0.0292 0.136 0.044 0.28 0.044 0.432 0 0.163-0.0167 0.312-0.0501 0.448-0.0334 0.136-0.086 0.253-0.157 0.351-0.071 0.0982-0.162 0.174-0.273 0.229-0.111 0.0543-0.241 0.0815-0.392 0.0815-0.165 0-0.303-0.0292-0.414-0.0877-0.111-0.0606-0.2-0.141-0.266-0.241-0.0648-0.102-0.112-0.221-0.141-0.357-0.0272-0.136-0.0404-0.281-0.0404-0.436 0-0.161 0.0167-0.309 0.0501-0.445 0.0355-0.136 0.0885-0.253 0.16-0.351 0.071-0.1 0.161-0.178 0.269-0.232 0.111-0.0543 0.242-0.0815 0.395-0.0815zm-12.1 0.0125c0.142 0 0.278 0.046 0.408 0.138 0.132 0.0898 0.267 0.221 0.407 0.395v1.13c-0.0815 0.102-0.159 0.189-0.232 0.26-0.0731 0.0689-0.143 0.125-0.21 0.169-0.0668 0.0439-0.133 0.0752-0.197 0.094-0.0627 0.0188-0.128 0.0282-0.197 0.0282-0.136 0-0.249-0.0313-0.338-0.094-0.0898-0.0648-0.162-0.149-0.216-0.254-0.0543-0.107-0.0926-0.228-0.116-0.363-0.0209-0.136-0.0317-0.275-0.0317-0.417 0-0.134 0.0128-0.265 0.0378-0.395 0.0272-0.13 0.0689-0.245 0.125-0.348 0.0585-0.102 0.134-0.185 0.225-0.248 0.0919-0.0627 0.204-0.094 0.335-0.094zm-11.5 0.799c-0.0376 0-0.0656 0.0157-0.0844 0.047-0.0188 0.0313-0.0286 0.0867-0.0286 0.166s0.0098 0.136 0.0286 0.169c0.0188 0.0313 0.0468 0.047 0.0844 0.047h1.31c0.0355 0 0.0625-0.0157 0.0813-0.047 0.0188-0.0313 0.0281-0.0877 0.0281-0.169 0-0.0397-0.0029-0.0731-0.0092-0.1-0.0042-0.0272-0.0115-0.0491-0.022-0.0658-0.0084-0.0188-0.0202-0.0313-0.0348-0.0376-0.0125-0.0063-0.0268-0.0094-0.0435-0.0094zm8.56 0.432h0.442v0.599c-0.127 0.142-0.25 0.248-0.367 0.316-0.115 0.0689-0.241 0.103-0.376 0.103-0.167 0-0.298-0.0428-0.392-0.128-0.0919-0.0877-0.138-0.205-0.138-0.351 0-0.0856 0.0157-0.161 0.047-0.226 0.0334-0.0668 0.0845-0.123 0.153-0.169 0.0689-0.048 0.155-0.0836 0.26-0.107 0.104-0.0251 0.228-0.0376 0.37-0.0376zm25.2 0h0.442v0.599c-0.127 0.142-0.25 0.248-0.367 0.316-0.115 0.0689-0.24 0.103-0.376 0.103-0.167 0-0.298-0.0428-0.392-0.128-0.0919-0.0877-0.138-0.205-0.138-0.351 0-0.0856 0.0157-0.161 0.047-0.226 0.0334-0.0668 0.0845-0.123 0.153-0.169 0.0689-0.048 0.156-0.0836 0.26-0.107 0.104-0.0251 0.228-0.0376 0.37-0.0376zm-34.5 2.6c-0.0501 0-0.0918 0.0021-0.125 0.0063-0.0334 0.0042-0.0604 0.0104-0.0813 0.0188-0.0188 0.0084-0.0326 0.0188-0.0409 0.0313-0.0063 0.0125-0.0092 0.0272-0.0092 0.0439v4.19c0 0.0167 0.0029 0.0313 0.0092 0.0439 0.0084 0.0104 0.0221 0.0198 0.0409 0.0282 0.0209 0.0084 0.0479 0.0146 0.0813 0.0188 0.0334 0.0042 0.0751 0.0063 0.125 0.0063 0.0522 0 0.0949-0.0021 0.128-0.0063 0.0334-0.0042 0.0599-0.0104 0.0787-0.0188 0.0188-0.0084 0.032-0.0178 0.0404-0.0282 0.0084-0.0125 0.0128-0.0272 0.0128-0.0439v-4.19c0-0.0167-0.0044-0.0313-0.0128-0.0439-0.0084-0.0125-0.0216-0.023-0.0404-0.0313-0.0188-0.0084-0.0453-0.0146-0.0787-0.0188-0.0334-0.0042-0.0761-0.0063-0.128-0.0063zm11.2 0c-0.0501 0-0.0918 0.0021-0.125 0.0063-0.0334 0.0042-0.0609 0.0104-0.0818 0.0188-0.0188 0.0084-0.032 0.0188-0.0404 0.0313-0.0063 0.0125-0.0097 0.0272-0.0097 0.0439v4.19c0 0.0167 0.0034 0.0313 0.0097 0.0439 0.0084 0.0104 0.0216 0.0198 0.0404 0.0282 0.0209 0.0084 0.0484 0.0146 0.0818 0.0188 0.0334 0.0042 0.0751 0.0063 0.125 0.0063 0.0522 0 0.0949-0.0021 0.128-0.0063 0.0334-0.0042 0.0594-0.0104 0.0782-0.0188 0.0188-0.0084 0.0326-0.0178 0.0409-0.0282 0.0084-0.0125 0.0128-0.0272 0.0128-0.0439v-4.19c0-0.0167-0.0044-0.0313-0.0128-0.0439-0.0084-0.0125-0.0221-0.023-0.0409-0.0313-0.0188-0.0084-0.0448-0.0146-0.0782-0.0188-0.0334-0.0042-0.0761-0.0063-0.128-0.0063zm7.06 0c-0.0501 0-0.0918 0.0021-0.125 0.0063-0.0334 0.0042-0.0604 0.0104-0.0813 0.0188-0.0188 0.0084-0.0326 0.0188-0.0409 0.0313-0.0063 0.0125-0.0097 0.0272-0.0097 0.0439v4.19c0 0.0167 0.0034 0.0313 0.0097 0.0439 0.0084 0.0104 0.0221 0.0198 0.0409 0.0282 0.0209 0.0084 0.0479 0.0146 0.0813 0.0188 0.0334 0.0042 0.0751 0.0063 0.125 0.0063 0.0522 0 0.0949-0.0021 0.128-0.0063 0.0334-0.0042 0.0594-0.0104 0.0782-0.0188 0.0188-0.0084 0.0326-0.0178 0.0409-0.0282 0.0084-0.0125 0.0128-0.0272 0.0128-0.0439v-1.56l1.19 1.56c0.0125 0.0188 0.0263 0.0355 0.0409 0.0501 0.0167 0.0125 0.0378 0.023 0.0629 0.0313 0.0251 0.0063 0.055 0.0104 0.0905 0.0125 0.0376 0.0042 0.0847 0.0063 0.141 0.0063 0.0543 0 0.0995-0.0021 0.135-0.0063s0.0625-0.0104 0.0813-0.0188c0.0209-0.0084 0.0356-0.0188 0.044-0.0313 0.0084-0.0125 0.0123-0.0272 0.0123-0.0439 0-0.0188-0.0059-0.0386-0.0184-0.0595-0.0104-0.023-0.0296-0.0522-0.0568-0.0877l-1.15-1.49 1.02-1.02c0.0313-0.0334 0.0534-0.0627 0.066-0.0877 0.0146-0.0251 0.022-0.0501 0.022-0.0752 0-0.0188-0.0054-0.0334-0.0158-0.0439-0.0084-0.0125-0.0241-0.0219-0.047-0.0282-0.0209-0.0084-0.0488-0.0136-0.0844-0.0157-0.0355-0.0042-0.0797-0.0063-0.132-0.0063-0.0501 0-0.0928 0.0021-0.128 0.0063-0.0355 0.0021-0.0669 0.0084-0.0941 0.0188-0.0251 0.0084-0.0466 0.0198-0.0654 0.0345-0.0188 0.0125-0.037 0.0292-0.0537 0.0501l-1.07 1.17v-2.55c0-0.0167-0.0044-0.0313-0.0128-0.0439-0.0084-0.0125-0.0221-0.023-0.0409-0.0313-0.0188-0.0084-0.0448-0.0146-0.0782-0.0188-0.0334-0.0042-0.0761-0.0063-0.128-0.0063zm-14.8 0.119c-0.194 0-0.343 0.0616-0.448 0.185-0.104 0.123-0.157 0.288-0.157 0.495 0 0.0272 0.0034 0.0501 0.0097 0.0689 0.0063 0.0167 0.0156 0.0303 0.0281 0.0407 0.0146 0.0084 0.0333 0.0146 0.0562 0.0188 0.023 0.0021 0.0515 0.0031 0.0849 0.0031 0.0397 0 0.0721-1e-3 0.0972-0.0031 0.0272-0.0021 0.0468-0.0063 0.0593-0.0125 0.0146-0.0063 0.024-0.0146 0.0281-0.0251 0.0042-0.0125 0.0061-0.0261 0.0061-0.0407 0-0.1 0.0167-0.181 0.0501-0.241 0.0334-0.0606 0.0923-0.0909 0.176-0.0909 0.046 0 0.0886 0.0104 0.128 0.0313 0.0397 0.0188 0.0794 0.0439 0.119 0.0752 0.0418 0.0313 0.0835 0.0648 0.125 0.1 0.0418 0.0355 0.0879 0.0689 0.138 0.1 0.0501 0.0313 0.105 0.0574 0.166 0.0783 0.0606 0.0188 0.13 0.0282 0.207 0.0282 0.186 0 0.333-0.0585 0.442-0.175 0.109-0.117 0.163-0.286 0.163-0.508 0-0.0543-0.0128-0.0888-0.0378-0.103-0.0251-0.0167-0.0761-0.0251-0.153-0.0251-0.0731 0-0.121 0.0063-0.144 0.0188-0.0209 0.0104-0.0312 0.0324-0.0312 0.0658 0 0.109-0.0201 0.191-0.0598 0.248-0.0376 0.0543-0.094 0.0815-0.169 0.0815-0.0668 0-0.129-0.0219-0.188-0.0658-0.0564-0.0439-0.118-0.0909-0.185-0.141-0.0648-0.0522-0.138-0.0992-0.219-0.141-0.0815-0.0439-0.179-0.0658-0.291-0.0658zm-1.99 0.0877c-0.123 0-0.208 0.0219-0.254 0.0658-0.046 0.0439-0.069 0.126-0.069 0.248 0 0.119 0.0221 0.201 0.066 0.244 0.046 0.0418 0.129 0.0627 0.251 0.0627 0.123 0 0.208-0.0219 0.254-0.0658s0.0685-0.126 0.0685-0.248c0-0.119-0.0226-0.2-0.0685-0.241-0.0439-0.0439-0.126-0.0658-0.247-0.0658zm8.23 0c-0.123 0-0.208 0.0219-0.254 0.0658-0.046 0.0439-0.069 0.126-0.069 0.248 0 0.119 0.0221 0.201 0.066 0.244 0.046 0.0418 0.129 0.0627 0.251 0.0627 0.123 0 0.208-0.0219 0.254-0.0658 0.046-0.0439 0.069-0.126 0.069-0.248 0-0.119-0.0231-0.2-0.069-0.241-0.0439-0.0439-0.126-0.0658-0.247-0.0658zm-12.7 0.0533c-0.113 0-0.19 0.0209-0.232 0.0627-0.0397 0.0418-0.0598 0.121-0.0598 0.238 0 0.111 0.0201 0.187 0.0598 0.229 0.0397 0.0397 0.116 0.0595 0.229 0.0595s0.19-0.0209 0.232-0.0627c0.0418-0.0418 0.0624-0.12 0.0624-0.235 0-0.111-0.0196-0.187-0.0593-0.229-0.0397-0.0418-0.117-0.0627-0.232-0.0627zm1.11 0c-0.113 0-0.19 0.0209-0.232 0.0627-0.0397 0.0418-0.0593 0.121-0.0593 0.238 0 0.111 0.0196 0.187 0.0593 0.229 0.0397 0.0397 0.116 0.0595 0.229 0.0595s0.19-0.0209 0.232-0.0627c0.0418-0.0418 0.0629-0.12 0.0629-0.235 0-0.111-0.0201-0.187-0.0598-0.229-0.0397-0.0418-0.117-0.0627-0.232-0.0627zm5.79 1.07c-0.24 0-0.45 0.0386-0.63 0.116-0.18 0.0773-0.33 0.186-0.451 0.326-0.119 0.14-0.209 0.307-0.269 0.501-0.0585 0.192-0.088 0.403-0.088 0.633 0 0.238 0.0285 0.451 0.0849 0.639 0.0564 0.188 0.142 0.348 0.257 0.479 0.115 0.132 0.258 0.232 0.43 0.301 0.173 0.0689 0.376 0.103 0.608 0.103 0.238 0 0.447-0.0386 0.626-0.116 0.182-0.0794 0.332-0.189 0.451-0.329 0.121-0.14 0.212-0.306 0.273-0.498 0.0606-0.194 0.091-0.406 0.091-0.636 0-0.236-0.0294-0.448-0.088-0.636-0.0564-0.188-0.142-0.348-0.257-0.479-0.115-0.132-0.259-0.232-0.433-0.301-0.171-0.0689-0.373-0.103-0.605-0.103zm3.6 0c-0.094 0-0.184 0.0115-0.269 0.0345-0.0836 0.0209-0.167 0.0533-0.248 0.0971-0.0794 0.0418-0.158 0.095-0.238 0.16-0.0794 0.0648-0.162 0.141-0.248 0.229v-0.379c0-0.0188-0.0039-0.0334-0.0123-0.0439-0.0063-0.0125-0.019-0.023-0.0378-0.0313-0.0188-0.0084-0.0428-0.0136-0.0721-0.0157-0.0272-0.0042-0.0625-0.0063-0.106-0.0063-0.0418 0-0.0771 0.0021-0.106 0.0063-0.0292 0.0021-0.0533 0.0073-0.0721 0.0157-0.0188 0.0084-0.0316 0.0188-0.0378 0.0313-0.0063 0.0104-0.0092 0.0251-0.0092 0.0439v3.94c0 0.0167 0.0029 0.0313 0.0092 0.0439 0.0084 0.0125 0.0221 0.023 0.0409 0.0313 0.0209 0.0084 0.0479 0.0146 0.0813 0.0188 0.0334 0.0042 0.0751 0.0063 0.125 0.0063 0.0522 0 0.0954-0.0021 0.129-0.0063 0.0334-0.0042 0.0594-0.0104 0.0782-0.0188 0.0188-0.0084 0.0326-0.0188 0.0409-0.0313 0.0084-0.0125 0.0123-0.0272 0.0123-0.0439v-1.41c0.0752 0.0731 0.146 0.137 0.213 0.191 0.0668 0.0543 0.134 0.0992 0.2 0.135 0.0689 0.0355 0.139 0.0616 0.21 0.0783 0.071 0.0167 0.148 0.0251 0.232 0.0251 0.196 0 0.371-0.0366 0.524-0.11 0.153-0.0752 0.28-0.181 0.382-0.316 0.104-0.138 0.183-0.305 0.235-0.501 0.0543-0.196 0.0813-0.418 0.0813-0.664 0-0.205-0.0206-0.398-0.0624-0.58-0.0418-0.184-0.109-0.345-0.201-0.483-0.0898-0.138-0.207-0.247-0.351-0.326-0.144-0.0794-0.318-0.119-0.523-0.119zm5.87 0c-0.109 0-0.216 0.0104-0.323 0.0313-0.107 0.0188-0.205 0.0439-0.295 0.0752-0.0898 0.0292-0.169 0.0627-0.238 0.1-0.0689 0.0355-0.118 0.0668-0.147 0.094-0.0272 0.0272-0.0448 0.0564-0.0532 0.0877-0.0063 0.0292-0.0092 0.07-0.0092 0.122 0 0.0313 2e-3 0.0606 0.0061 0.0877 0.0042 0.0251 0.0106 0.046 0.0189 0.0627 0.0104 0.0167 0.0217 0.0292 0.0343 0.0376 0.0125 0.0084 0.0273 0.0125 0.044 0.0125 0.0251 0 0.0624-0.0146 0.112-0.0439 0.0522-0.0313 0.116-0.0648 0.191-0.1 0.0773-0.0376 0.166-0.071 0.266-0.1 0.102-0.0313 0.217-0.047 0.345-0.047 0.119 0 0.22 0.0146 0.301 0.0439 0.0815 0.0272 0.147 0.0689 0.197 0.125 0.0522 0.0543 0.0895 0.123 0.112 0.207 0.023 0.0836 0.0348 0.18 0.0348 0.288v0.219h-0.389c-0.219 0-0.417 0.0198-0.592 0.0595-0.175 0.0376-0.324 0.095-0.445 0.172-0.121 0.0773-0.214 0.174-0.279 0.291s-0.0972 0.255-0.0972 0.414c0 0.136 0.0231 0.257 0.069 0.363 0.048 0.107 0.114 0.196 0.197 0.269 0.0856 0.0731 0.188 0.128 0.307 0.166 0.121 0.0397 0.256 0.0595 0.404 0.0595 0.169 0 0.329-0.0366 0.48-0.11 0.153-0.0731 0.29-0.175 0.414-0.307v0.282c0 0.0251 0.0069 0.0439 0.0215 0.0564 0.0146 0.0125 0.0377 0.0219 0.069 0.0282 0.0334 0.0063 0.0776 0.0094 0.132 0.0094 0.0564 0 0.0991-0.0031 0.128-0.0094 0.0292-0.0063 0.0523-0.0157 0.069-0.0282s0.025-0.0313 0.025-0.0564v-1.9c0-0.175-0.0201-0.329-0.0598-0.461-0.0397-0.132-0.103-0.241-0.191-0.329-0.0877-0.0898-0.203-0.158-0.345-0.204-0.142-0.046-0.314-0.0689-0.517-0.0689zm2.93 0c-0.171 0-0.321 0.023-0.451 0.0689-0.127 0.046-0.234 0.108-0.32 0.185-0.0856 0.0752-0.15 0.164-0.194 0.266-0.0418 0.1-0.0629 0.206-0.0629 0.316 0 0.125 0.0201 0.233 0.0598 0.323 0.0418 0.0898 0.0958 0.167 0.163 0.232s0.142 0.12 0.226 0.166c0.0856 0.0439 0.172 0.0836 0.26 0.119 0.0898 0.0355 0.177 0.07 0.26 0.103 0.0836 0.0313 0.159 0.0679 0.225 0.11 0.0668 0.0418 0.12 0.0898 0.16 0.144 0.0418 0.0543 0.0624 0.121 0.0624 0.201 0 0.0773-0.0147 0.144-0.044 0.201-0.0272 0.0564-0.0664 0.103-0.119 0.141-0.0522 0.0355-0.114 0.0627-0.185 0.0815-0.071 0.0188-0.151 0.0282-0.238 0.0282-0.117 0-0.22-0.0136-0.31-0.0407-0.0898-0.0292-0.168-0.0606-0.235-0.094-0.0648-0.0334-0.12-0.0637-0.166-0.0909-0.0439-0.0292-0.0772-0.0439-0.1-0.0439-0.0146 0-0.0284 0.0042-0.0409 0.0125-0.0104 0.0063-0.0188 0.0178-0.025 0.0345-0.0063 0.0167-0.0112 0.0386-0.0153 0.0658-0.0042 0.0272-0.0066 0.0606-0.0066 0.1 0 0.0648 0.0054 0.116 0.0158 0.154 0.0104 0.0376 0.0271 0.0668 0.0501 0.0877s0.0598 0.0449 0.11 0.0721c0.0501 0.0251 0.11 0.0501 0.182 0.0752 0.0731 0.023 0.155 0.0418 0.244 0.0564 0.0919 0.0167 0.188 0.0251 0.288 0.0251 0.163 0 0.312-0.0198 0.448-0.0595 0.136-0.0397 0.253-0.0982 0.351-0.175 0.0982-0.0773 0.173-0.172 0.225-0.285 0.0543-0.113 0.0813-0.241 0.0813-0.385 0-0.121-0.0206-0.226-0.0624-0.313-0.0397-0.0877-0.0932-0.163-0.16-0.226-0.0668-0.0627-0.144-0.116-0.232-0.16-0.0856-0.0439-0.174-0.0836-0.263-0.119-0.0877-0.0355-0.175-0.07-0.26-0.103-0.0856-0.0334-0.162-0.071-0.229-0.113-0.0668-0.0418-0.121-0.0898-0.163-0.144-0.0418-0.0564-0.0624-0.125-0.0624-0.207 0-0.0585 0.0103-0.113 0.0312-0.163 0.023-0.0501 0.0554-0.093 0.0972-0.128 0.0439-0.0376 0.0993-0.0658 0.166-0.0846 0.0668-0.0209 0.144-0.0313 0.232-0.0313 0.0982 0 0.185 0.0115 0.26 0.0345 0.0773 0.023 0.144 0.048 0.2 0.0752 0.0564 0.0251 0.103 0.0491 0.138 0.0721 0.0355 0.023 0.0625 0.0345 0.0813 0.0345 0.0125 0 0.0238-0.0031 0.0343-0.0094 0.0104-0.0084 0.0188-0.0209 0.0251-0.0376 0.0084-0.0167 0.0138-0.0376 0.0158-0.0627 0.0042-0.0272 0.0061-0.0585 0.0061-0.094 0-0.0334-2e-3 -0.0616-0.0061-0.0846-0.0021-0.023-5e-3 -0.0418-0.0092-0.0564-0.0021-0.0167-0.0075-0.0313-0.0158-0.0439-0.0063-0.0125-0.021-0.0272-0.044-0.0439-0.0209-0.0167-0.0533-0.0355-0.0972-0.0564-0.0418-0.023-0.0928-0.0439-0.153-0.0627-0.0606-0.0188-0.128-0.0345-0.204-0.047-0.0752-0.0125-0.151-0.0188-0.226-0.0188zm5.58 0c-0.24 0-0.45 0.0386-0.63 0.116-0.18 0.0773-0.33 0.186-0.451 0.326-0.119 0.14-0.209 0.307-0.269 0.501-0.0585 0.192-0.088 0.403-0.088 0.633 0 0.238 0.0285 0.451 0.0849 0.639 0.0564 0.188 0.142 0.348 0.257 0.479 0.115 0.132 0.258 0.232 0.43 0.301 0.173 0.0689 0.376 0.103 0.608 0.103 0.238 0 0.447-0.0386 0.626-0.116 0.182-0.0794 0.332-0.189 0.451-0.329 0.121-0.14 0.212-0.306 0.273-0.498 0.0606-0.194 0.091-0.406 0.091-0.636 0-0.236-0.0294-0.448-0.088-0.636-0.0564-0.188-0.142-0.348-0.257-0.479-0.115-0.132-0.259-0.232-0.432-0.301-0.171-0.0689-0.373-0.103-0.605-0.103zm3.09 0.0063c-0.159 0-0.306 0.024-0.442 0.0721-0.134 0.046-0.249 0.113-0.345 0.201-0.0961 0.0877-0.171 0.195-0.225 0.323-0.0543 0.127-0.0813 0.272-0.0813 0.432 0 0.138 0.0186 0.256 0.0562 0.354 0.0376 0.0961 0.0892 0.183 0.154 0.26-0.0773 0.0794-0.142 0.169-0.194 0.269-0.0522 0.1-0.0787 0.214-0.0787 0.342 0 0.0919 0.024 0.178 0.0721 0.257 0.0501 0.0794 0.127 0.145 0.229 0.197-0.0668 0.0522-0.127 0.105-0.179 0.16-0.0501 0.0522-0.0928 0.108-0.128 0.166-0.0334 0.0585-0.0584 0.12-0.0752 0.185s-0.025 0.132-0.025 0.201c0 0.109 0.0231 0.209 0.069 0.301 0.046 0.094 0.12 0.174 0.222 0.241 0.102 0.0668 0.233 0.119 0.392 0.157 0.161 0.0397 0.355 0.0595 0.583 0.0595 0.236 0 0.441-0.0261 0.614-0.0783 0.173-0.0501 0.315-0.12 0.426-0.21 0.113-0.0877 0.197-0.19 0.251-0.307 0.0543-0.117 0.0813-0.24 0.0813-0.37 0-0.123-0.024-0.231-0.0721-0.323-0.048-0.094-0.115-0.172-0.2-0.235-0.0856-0.0648-0.187-0.114-0.304-0.147-0.117-0.0355-0.245-0.0554-0.385-0.0595l-0.737-0.0313c-0.113-0.0042-0.204-0.0303-0.273-0.0783-0.0668-0.048-0.1-0.109-0.1-0.182 0-0.0627 0.0118-0.118 0.0348-0.166 0.0251-0.048 0.056-0.0909 0.0936-0.128 0.0564 0.046 0.136 0.0846 0.238 0.116 0.104 0.0292 0.214 0.0439 0.329 0.0439 0.163 0 0.311-0.023 0.445-0.0689 0.134-0.046 0.249-0.112 0.345-0.197 0.0982-0.0877 0.173-0.194 0.225-0.32 0.0522-0.125 0.0787-0.269 0.0787-0.432 0-0.0982-0.0147-0.192-0.044-0.282-0.0292-0.0919-0.0808-0.175-0.154-0.251h0.404c0.0313 0 0.0564-0.0157 0.0752-0.047 0.0209-0.0334 0.0312-0.0867 0.0312-0.16 0-0.071-0.0093-0.123-0.0281-0.157-0.0167-0.0355-0.0427-0.0533-0.0782-0.0533h-0.852c-0.0648-0.0167-0.135-0.0292-0.21-0.0376-0.0731-0.0104-0.152-0.0157-0.238-0.0157zm-28.4 0.0376c-0.0501 0-0.0918 0.0021-0.125 0.0063-0.0334 0.0021-0.0604 0.0084-0.0813 0.0188-0.0209 0.0084-0.0356 0.0188-0.044 0.0313-0.0063 0.0104-0.0092 0.024-0.0092 0.0407v1.71c0 0.205 0.0167 0.379 0.0501 0.523 0.0355 0.142 0.0929 0.267 0.172 0.376 0.0794 0.107 0.183 0.191 0.31 0.254 0.13 0.0627 0.288 0.094 0.476 0.094 0.161 0 0.32-0.0407 0.477-0.122s0.315-0.211 0.476-0.389v0.373c0 0.0167 0.0034 0.0313 0.0097 0.0439 0.0063 0.0104 0.0176 0.0198 0.0343 0.0282 0.0188 0.0084 0.0428 0.0146 0.0721 0.0188 0.0313 0.0042 0.0711 0.0063 0.119 0.0063 0.0439 0 0.0802-0.0021 0.109-0.0063 0.0313-0.0042 0.0564-0.0104 0.0752-0.0188 0.0188-0.0084 0.0316-0.0178 0.0378-0.0282 0.0084-0.0125 0.0123-0.0272 0.0123-0.0439v-2.82c0-0.0167-0.0049-0.0303-0.0153-0.0407-0.0084-0.0125-0.0221-0.023-0.0409-0.0313-0.0188-0.0104-0.0448-0.0167-0.0782-0.0188-0.0334-0.0042-0.0751-0.0063-0.125-0.0063-0.0522 0-0.0954 0.0021-0.129 0.0063-0.0313 0.0021-0.0573 0.0084-0.0782 0.0188-0.0209 0.0084-0.0356 0.0188-0.044 0.0313-0.0063 0.0104-0.0092 0.024-0.0092 0.0407v1.97c-0.144 0.178-0.281 0.312-0.411 0.404-0.127 0.0919-0.256 0.138-0.386 0.138-0.1 0-0.188-0.0188-0.263-0.0564-0.0752-0.0397-0.138-0.094-0.188-0.163-0.048-0.071-0.0849-0.156-0.11-0.254-0.023-0.1-0.0343-0.233-0.0343-0.398v-1.64c0-0.0167-0.0039-0.0303-0.0123-0.0407-0.0084-0.0125-0.0231-0.023-0.044-0.0313-0.0188-0.0104-0.0448-0.0167-0.0782-0.0188-0.0334-0.0042-0.0756-0.0063-0.126-0.0063zm4.86 0c-0.0501 0-0.0918 0.0021-0.125 0.0063-0.0334 0.0042-0.0604 0.0104-0.0813 0.0188-0.0188 0.0084-0.0326 0.0188-0.0409 0.0313-0.0063 0.0125-0.0092 0.0261-0.0092 0.0407v2.82c0 0.0167 0.0029 0.0313 0.0092 0.0439 0.0084 0.0104 0.0221 0.0198 0.0409 0.0282 0.0209 0.0084 0.0479 0.0146 0.0813 0.0188 0.0334 0.0042 0.0751 0.0063 0.125 0.0063 0.0522 0 0.0954-0.0021 0.129-0.0063 0.0334-0.0042 0.0594-0.0104 0.0782-0.0188 0.0188-0.0084 0.0326-0.0178 0.0409-0.0282 0.0084-0.0125 0.0123-0.0272 0.0123-0.0439v-2.82c0-0.0146-0.0039-0.0282-0.0123-0.0407-0.0084-0.0125-0.0221-0.023-0.0409-0.0313-0.0188-0.0084-0.0448-0.0146-0.0782-0.0188-0.0334-0.0042-0.0766-0.0063-0.129-0.0063zm8.23 0c-0.0501 0-0.0924 0.0021-0.126 0.0063-0.0334 0.0042-0.0604 0.0104-0.0813 0.0188-0.0188 0.0084-0.0326 0.0188-0.0409 0.0313-0.0063 0.0125-0.0092 0.0261-0.0092 0.0407v2.82c0 0.0167 0.0029 0.0313 0.0092 0.0439 0.0084 0.0104 0.0221 0.0198 0.0409 0.0282 0.0209 0.0084 0.0479 0.0146 0.0813 0.0188 0.0334 0.0042 0.0756 0.0063 0.126 0.0063 0.0522 0 0.0949-0.0021 0.128-0.0063 0.0334-0.0042 0.0594-0.0104 0.0782-0.0188 0.0188-0.0084 0.0326-0.0178 0.0409-0.0282 0.0084-0.0125 0.0123-0.0272 0.0123-0.0439v-2.82c0-0.0146-0.0039-0.0282-0.0123-0.0407-0.0084-0.0125-0.0221-0.023-0.0409-0.0313-0.0188-0.0084-0.0448-0.0146-0.0782-0.0188-0.0334-0.0042-0.0761-0.0063-0.128-0.0063zm17.6 0c-0.0501 0-0.0924 0.0021-0.126 0.0063-0.0334 0.0021-0.0604 0.0084-0.0813 0.0188-0.0209 0.0084-0.0356 0.0188-0.044 0.0313-0.0063 0.0104-0.0092 0.024-0.0092 0.0407v1.71c0 0.205 0.0167 0.379 0.0501 0.523 0.0355 0.142 0.0929 0.267 0.172 0.376 0.0794 0.107 0.183 0.191 0.31 0.254 0.13 0.0627 0.288 0.094 0.476 0.094 0.161 0 0.32-0.0407 0.477-0.122s0.315-0.211 0.476-0.389v0.373c0 0.0167 0.0034 0.0313 0.0097 0.0439 0.0063 0.0104 0.0176 0.0198 0.0343 0.0282 0.0188 0.0084 0.0428 0.0146 0.0721 0.0188 0.0313 0.0042 0.0711 0.0063 0.119 0.0063 0.0439 0 0.0802-0.0021 0.109-0.0063 0.0313-0.0042 0.0569-0.0104 0.0757-0.0188 0.0188-0.0084 0.0311-0.0178 0.0373-0.0282 0.0084-0.0125 0.0128-0.0272 0.0128-0.0439v-2.82c0-0.0167-0.0054-0.0303-0.0158-0.0407-0.0084-0.0125-0.0221-0.023-0.0409-0.0313-0.0188-0.0104-0.0448-0.0167-0.0782-0.0188-0.0334-0.0042-0.0751-0.0063-0.125-0.0063-0.0522 0-0.0949 0.0021-0.128 0.0063-0.0313 0.0021-0.0578 0.0084-0.0787 0.0188-0.0209 0.0084-0.0351 0.0188-0.0435 0.0313-0.0063 0.0104-0.0097 0.024-0.0097 0.0407v1.97c-0.144 0.178-0.281 0.312-0.411 0.404-0.127 0.0919-0.256 0.138-0.385 0.138-0.1 0-0.188-0.0188-0.263-0.0564-0.0752-0.0397-0.138-0.094-0.188-0.163-0.048-0.071-0.0844-0.156-0.109-0.254-0.023-0.1-0.0348-0.233-0.0348-0.398v-1.64c0-0.0167-0.0039-0.0303-0.0123-0.0407-0.0084-0.0125-0.0231-0.023-0.044-0.0313-0.0188-0.0104-0.0448-0.0167-0.0782-0.0188-0.0334-0.0042-0.0751-0.0063-0.125-0.0063zm-2.33 0.357c0.194 0 0.344 0.0543 0.448 0.163 0.107 0.107 0.16 0.256 0.16 0.448 0 0.0815-0.0123 0.16-0.0373 0.235-0.023 0.0752-0.0598 0.142-0.11 0.201-0.048 0.0564-0.109 0.101-0.185 0.135-0.0752 0.0313-0.164 0.047-0.266 0.047-0.19 0-0.339-0.0533-0.445-0.16-0.104-0.107-0.156-0.253-0.156-0.439 0-0.0836 0.0113-0.163 0.0343-0.238 0.0251-0.0773 0.0619-0.145 0.11-0.204 0.0501-0.0585 0.112-0.104 0.185-0.138 0.0752-0.0334 0.163-0.0501 0.263-0.0501zm-21.1 0.0313c0.165 0 0.303 0.0303 0.414 0.0909 0.111 0.0585 0.199 0.139 0.263 0.241 0.0648 0.102 0.111 0.221 0.138 0.357 0.0292 0.136 0.0435 0.28 0.0435 0.432 0 0.163-0.0167 0.312-0.0501 0.448-0.0334 0.136-0.0854 0.253-0.156 0.351-0.071 0.0982-0.162 0.174-0.273 0.229-0.111 0.0543-0.241 0.0815-0.392 0.0815-0.165 0-0.303-0.0292-0.414-0.0877-0.111-0.0606-0.2-0.141-0.266-0.241-0.0648-0.102-0.112-0.221-0.141-0.357-0.0272-0.136-0.0409-0.281-0.0409-0.436 0-0.161 0.0167-0.309 0.0501-0.445 0.0355-0.136 0.089-0.253 0.16-0.351 0.071-0.1 0.161-0.178 0.269-0.232 0.111-0.0543 0.242-0.0815 0.395-0.0815zm18 0c0.165 0 0.303 0.0303 0.414 0.0909 0.111 0.0585 0.199 0.139 0.263 0.241 0.0648 0.102 0.11 0.221 0.138 0.357 0.0292 0.136 0.044 0.28 0.044 0.432 0 0.163-0.0167 0.312-0.0501 0.448-0.0334 0.136-0.0854 0.253-0.156 0.351-0.071 0.0982-0.162 0.174-0.273 0.229-0.111 0.0543-0.241 0.0815-0.392 0.0815-0.165 0-0.303-0.0292-0.414-0.0877-0.111-0.0606-0.2-0.141-0.266-0.241-0.0648-0.102-0.112-0.221-0.141-0.357-0.0272-0.136-0.0409-0.281-0.0409-0.436 0-0.161 0.0167-0.309 0.0501-0.445 0.0355-0.136 0.089-0.253 0.16-0.351 0.071-0.1 0.161-0.178 0.269-0.232 0.111-0.0543 0.242-0.0815 0.395-0.0815zm-14.5 0.0125c0.134 0 0.246 0.0313 0.335 0.094 0.0898 0.0627 0.161 0.146 0.213 0.251 0.0543 0.104 0.0916 0.225 0.112 0.36 0.023 0.134 0.0348 0.273 0.0348 0.417 0 0.132-0.0138 0.262-0.0409 0.392-0.0272 0.13-0.0698 0.247-0.128 0.351-0.0564 0.104-0.131 0.188-0.225 0.251-0.0919 0.0627-0.203 0.094-0.332 0.094-0.14 0-0.273-0.046-0.401-0.138-0.127-0.0919-0.262-0.225-0.404-0.398v-1.12c0.0815-0.102 0.159-0.188 0.232-0.257 0.0731-0.071 0.143-0.127 0.21-0.169 0.0668-0.0439 0.133-0.0752 0.197-0.094 0.0648-0.0209 0.131-0.0313 0.197-0.0313zm6.13 1.23h0.442v0.599c-0.127 0.142-0.25 0.248-0.367 0.316-0.115 0.0689-0.241 0.103-0.376 0.103-0.167 0-0.298-0.0428-0.392-0.128-0.0919-0.0877-0.138-0.205-0.138-0.351 0-0.0856 0.0152-0.161 0.0465-0.226 0.0334-0.0668 0.085-0.123 0.154-0.169 0.0689-0.048 0.155-0.0836 0.26-0.107 0.104-0.0251 0.228-0.0376 0.37-0.0376zm11 1.16 0.73 0.0251c0.169 0.0042 0.303 0.0397 0.401 0.107 0.1 0.0648 0.15 0.158 0.15 0.279 0 0.071-0.0147 0.139-0.044 0.204-0.0272 0.0648-0.0733 0.122-0.138 0.172-0.0648 0.0501-0.15 0.0898-0.257 0.119-0.104 0.0313-0.235 0.047-0.392 0.047-0.247 0-0.439-0.0355-0.577-0.107-0.138-0.0689-0.207-0.171-0.207-0.307 0-0.0439 0.0039-0.0867 0.0123-0.128 0.0104-0.0418 0.0281-0.0846 0.0532-0.128 0.0251-0.0418 0.059-0.0856 0.101-0.132 0.0439-0.048 0.0988-0.0982 0.166-0.15z"/><path d="m6.74 7.34v14.5h14.5v-14.5zm1.7 3.1 5.8 3.47v1.03l-5.8 3.39v-2.43l2.58-1.53-2.58-1.63zm6.24 7.46h4.89v1.93h-4.89z"/></g></svg>
