<svg width="73.6mm" height="91.5mm" version="1.1" viewBox="0 0 73.6 91.5" xmlns="http://www.w3.org/2000/svg"><g transform="translate(-33.7 -115)"><g transform="matrix(.524 0 0 .524 33.7 115)"><path d="m140 95.9-71.2 17.6-69.3-17.7v78.9l69.2-17.7 71.2 17.5z" fill="#c10c1a"/><path d="m8.79 108c-0.335 0-0.503 0.168-0.503 0.336v53.8c0 0.335 0.203 0.503 0.538 0.336l5.4-1.17c0.168 0 0.195-0.144 0.195-0.312l1.93e-4 -19c3e-6 -0.335 0.168-0.481 0.503-0.503l2.16-0.141c3.62-0.225 7.18-3.12 7.18-7.48v-16.1c0.168-3.7-2.51-6.97-6.2-7.81l-3.04-0.671zm119 0.0486c-1.22-0.0452-2.76 0.216-4.64 0.583-5.71 1.19-7.89 2.28-7.89 9.5v3.86c0 12.6 10.2 16.6 10.2 25.4v5.71c-0.0657 2.04-0.943 2.4-2.35 2.18-1.68-0.168-2.35-0.667-2.35-4.02v-8.8c0-0.671-0.565-0.666-3.19-0.666-2.28 0-2.45-0.0546-2.45 0.616v9.52c0 8.22 2.79 8.99 7.99 10.2 7.21 1.69 8.66-0.764 8.66-8.32v-5.71c0-13.6-10.4-16.8-10.4-25.9 0-1.01-0.168-3.35 0-4.53 0-1.85 0.781-2.35 2.29-2.52 1.34-0.335 2.18 0.503 2.18 2.52v8.23c0 0.503 1.17 0.503 3.19 0.503 1.68 0 2.63-1e-5 2.63-0.503v-10.9c0-5.2-1.16-6.78-3.85-6.88zm-15.7 3.54c-0.0546-0.0105-0.12-0.01-0.199 7e-4l-11 2.38c-0.168 0-0.336 0.167-0.336 0.335l0.0352 41.9c1.4e-4 0.175 0.168 0.342 0.336 0.342l10.9 2.51c0.335 0 0.505-0.168 0.503-0.503l-0.0352-6.04c-9.6e-4 -0.168 4.6e-4 -0.336-0.335-0.336l-5.28-0.957c-0.335 0-0.335-0.168-0.335-0.336v-13.1c0-0.168 0.167-0.336 0.335-0.336l3.92-0.238c0.335 0 0.441-0.168 0.441-0.503v-5.51c0-0.182-0.146-0.321-0.441-0.31l-3.92 0.145c-0.168 0-0.335-0.168-0.335-0.503v-10.9c0-0.168 0.167-0.336 0.335-0.336l5.34-0.893c0.168 0 0.336-0.168 0.336-0.336v-6.11c0-0.251-0.062-0.382-0.226-0.413zm-84.6 0.574c-0.257-0.0494-0.593 0.0265-0.612 0.335l-1.27e-4 45.5c0.0193 0.257 0.191 0.372 0.456 0.329l4.56-0.909c0.335-0.168 0.336-0.335 0.336-0.503l-0.0352-19.1c-3.09e-4 -0.168 0.168-0.336 0.503-0.336h1.68c1.1 0 1.75 0.775 1.84 1.84l0.0706 16.6c0.0396 0.355 0.31 0.434 0.67 0.356l4.21-0.909c0.168-0.168 0.17-0.335 0.167-0.503l0.0676-14.9c-0.168-2.35-0.503-4.28-3.02-5.46 2.35-1.01 2.71-2.93 2.71-5.11v-9.91c0-3.02-1.17-4.53-4.04-5.2zm-13 3.39 1.02 0.203c1.95 0.416 3.11 2.09 3.11 3.93v12.9c0 1.51-1.11 2.94-2.78 3.05l-1.36 0.0882c-0.167 0.0109-0.503-0.168-0.503-0.336l-1.47e-4 -9.95 0.0353-9.54c6.89e-4 -0.186 0.189-0.377 0.468-0.336zm78.2 0.298c-0.0583-0.0131-0.13-0.013-0.219 6e-3l-4.62 0.986c-0.168 0-0.336 0.168-0.336 0.336v36.3c0 0.168 0.168 0.336 0.336 0.336l9.45 2.04c0.217 0.096 0.461-0.0742 0.461-0.242v-5.48c0-0.168-0.0554-0.302-0.336-0.336l-4.17-0.689c-0.168 0-0.336-0.168-0.336-0.336v-32.5c0-0.138-0.0503-0.297-0.225-0.336zm-47.2 0.267c-0.189 0.0314-0.283 0.251-0.283 0.377v37.6c0 0.168 0.168 0.335 0.503 0.335l4.2-1.01c0.168 0 0.335-0.167 0.335-0.335v-35.5c0-0.161-0.0525-0.335-0.335-0.503l-4.2-0.939c-0.0838-0.0419-0.157-0.0525-0.22-0.042zm9.15 1.99c-0.335 0-0.503 0.0616-0.503 0.397v33.6c0 0.335 0.168 0.502 0.503 0.335l3.45-0.67c0.168 0 0.336-0.168 0.336-0.503v-16.8c0.0044 1e-5 0.0128-0.167 0.167-0.167h0.168c0.123 1e-3 0.168 0.146 0.167 0.167l3.93 15.7c0 0.335 0.168 0.336 0.503 0.336l2.96-0.671c0.168 0 0.335-0.167 0.335-0.349v-28.6c0-0.168-0.167-0.336-0.335-0.336l-3.11-0.67c-0.168-0.168-0.503 2.4e-4 -0.503 0.336v13.5c0 0.168-0.082 0.271-0.322 0.271-0.272-2e-3 -0.342-0.1-0.387-0.271l-0.157-0.503-3.24-14c-0.0485-0.186-0.126-0.289-0.336-0.335zm25.9 0.565c-0.277 3e-3 -0.573 0.045-0.887 0.129l-2.18 0.503c0 0.0159-2.5 0.469-4.34 0.906-2.86 0.671-2.95 1.98-3 5.01v20.4c0 2.51 0.592 4.42 3.11 4.92l6.24 1.34c2.85 0.671 4.36-1.72 4.36-4.58v-12.4c0-0.335-0.168-0.503-0.336-0.503h-5.54c-0.168 0-0.336 0.168-0.336 0.336v4.79c0 0.168 0.168 0.336 0.336 0.336l1.02 0.0351v5.54c0 0.515-0.334 1.03-0.838 1l-1.98-0.167c-0.503 0-1.14-0.668-1.17-1.34v-19.9c0.257-1.05 0.752-1.07 1.13-1.26l1.52-0.167c0.612 0 1.12 0.371 1.12 1.04v4.24c9e-3 0.404 0.174 0.533 0.442 0.523l3.97-0.148c0.335-0.0125 0.336-0.335 0.336-0.503l-7e-3 -5.69c-0.0033-2.65-1.03-4.52-2.97-4.5zm-47.7 0.23 1.58 0.448c1.3 0.464 1.82 1.44 1.82 2.45 0.103 3.34 0.13 6.9-0.0915 9.8-0.131 0.769-0.879 1.29-1.72 1.29h-1.42c-0.512 0-0.679-0.143-0.679-0.511v-13c0-0.335 0.264-0.55 0.503-0.503z" fill="#fff"/><path d="m6 74.9c5.07 27.2 38.2 44.1 73.9 37.3 35.8-6.59 60.5-34.1 55.5-61.5-5.07-27.4-38.2-44.1-73.9-37.5-35.7 6.76-60.5 34.3-55.5 61.7z" fill="#fff"/><g fill="#1c1c1a"><path d="m95.5-0.0187c-0.976 0.00198-1.95 0.152-2.89 0.469-2.52 0.844-4.57 2.76-5.92 5.63-0.336 0.52-0.168 1.2 0.336 1.7 0.504 0.337 1.14 0.447 1.64 0.11 1.01-0.844 2.02-1.35 3.36-1.87 5.89-2.02 12.3 0.806 15.3 6.93 0 0.176 0.336 0.344 0.504 0.344h0.336c0.35-0.169 0.518-0.513 0.518-0.851-0.0658-0.506-0.26-1.01-0.337-1.35-1.33-4.26-4.31-8.11-8.01-9.97-1.58-0.738-3.22-1.15-4.85-1.14zm-46.6 0.289c-8.4-0.0733-15.6 7.89-16.2 17.8v1.51c0 0.517 0.335 0.685 0.671 0.852h0.168c0.336 0 0.504-0.335 0.672-0.67 1.85-8.07 9.42-13.8 18-13.4 1.85 0 3.86 0.335 5.71 1.17 0.504 0.168 1.01-1.32e-5 1.34-0.503 0.504-0.671 0.336-1.36 0-1.86-2.69-3.02-6.22-4.69-9.92-4.86-0.134-0.00524-0.267-0.00848-0.4-0.00965z"/><path d="m123 40.4c-0.671-0.335-1.17 0.168-0.839 0.671 1.34 2.86 1.31 7.06-3.06 7.06-4.87 0-11.2-6.05-19.8-6.05-6.05 0-12.8 4.21-13.4 13.6-4.04-6.21-11.2-10.4-19.7-10.4-15.8 0-27 19.1-40.1 19.1-5.7 0-7.42-5.04-6.24-8.91 0.168-0.671-0.503-1.17-1.01-0.671-4.54 3.53-6.05 9.58-6.05 15.5 0 15.9 16.3 29.5 38 29.5 20.6 0 38.2-12.4 38.9-30.6 4.19 6.05 11.3 9.58 18.5 9.58 11.6 0 22.5-8.22 22.5-22.2 0-6.37-3.36-13.8-7.55-16.3z"/><path d="m98.7 21.9c-2.35-0.024-4.16 2.75-3.81 6.27 0.193 3.87 2.74 7.22 5.43 7.37 2.52 0.151 4.35-2.71 3.99-6.42-0.36-3.69-2.56-7.04-5.25-7.19-0.118-0.015-0.235-0.0229-0.351-0.0241zm-45.9 4.1c-3.04 0.147-5.04 3.5-4.57 7.85 0.477 4.18 3.49 7.73 6.52 7.59 3.03 0.0201 4.9-3.54 4.43-7.88-0.645-4.19-3.35-7.54-6.38-7.56z"/></g></g></g></svg>
