<svg width="26.458mm" height="32.142mm" version="1.1" viewBox="0 0 26.458 32.142" xmlns="http://www.w3.org/2000/svg"><g transform="matrix(.0094647 0 0 .0094647 -4.5383 -2.9009)" clip-rule="evenodd" fill-rule="evenodd" image-rendering="optimizeQuality" shape-rendering="geometricPrecision"><path d="m2283.5 306.5c42.73 0.014 82.06 11.514 118 34.5 54.9 37.249 94.73 86.749 119.5 148.5 7.14 17.922 12.97 36.256 17.5 55-2.79 13.062-10.46 17.229-23 12.5l-4.5-4.5c-44.99-88.692-117.33-136.36-217-143-52.32 1.438-99.16 17.938-140.5 49.5-20.97 4.85-33.3-3.316-37-24.5 2.56-11.459 7.06-22.125 13.5-32 34.89-58.068 86.06-90.068 153.5-96z" fill="#020202" opacity=".992"/><path d="m1382.5 312.5c88.62-3.425 161.79 28.242 219.5 95 7.89 16.588 4.39 30.088-10.5 40.5-6.54 2.854-13.21 3.187-20 1-97.63-35.312-192.3-28.646-284 20-86.16 49.407-140.99 122.57-164.5 219.5-8.71 8.285-17.04 7.952-25-1-4.01-105.63 28.32-198.3 97-278 40.34-44.963 89.84-75.13 148.5-90.5 13.04-2.839 26.04-5.006 39-6.5z" fill="#020202" opacity=".993"/><path d="m2515.5 2364.5h-1c-0.67 0-1 0.33-1 1-310.11 158.79-639.11 222.62-987 191.5-183.58-17.2-357.58-67.2-522-150-61.242-32.1-119.24-68.93-174-110.5-0.342-0.84-1.008-1.17-2-1-70.161-55.66-131.99-119.33-185.5-191-137.87-194.69-181.54-409.02-131-643 27.502-111.26 73.502-213.93 138-308 88.917-126.92 197.08-234.42 324.5-322.5 161.76-110.35 338.09-189.69 529-238 241.52-61.533 485.18-71.866 731-31 150.89 25.738 293.55 74.738 428 147 102.03 55.654 192.87 126.15 272.5 211.5 72.59 79.447 128.26 169.78 167 271 64.6 180.62 64.6 361.29 0 542-36.7 98.44-87.03 188.77-151 271-75.49 94.83-161.99 178-259.5 249.5-56.2 40.61-114.87 77.44-176 110.5z" fill="#010000" opacity=".998"/><path d="m592.5 1706.5c-0.609-24.33-0.942-48.66-1-73 0.555-11.66 0.888-23.33 1-35 7.855-103.06 34.355-201.06 79.5-294 57.995-116.69 134.5-219.86 229.5-309.5 143.12-132.3 307.12-231.63 492-298 269.48-96.762 545.14-120.1 827-70 157.05 29.339 303.05 86.339 438 171 100.57 63.89 185.73 144.39 255.5 241.5 133.19 195.79 169.19 408.45 108 638-34.97 117.29-89.97 223.95-165 320-79.2 100.21-171.36 186.05-276.5 257.5-179.33 120.25-375.66 199.92-589 239-174.15 31.96-348.82 34.96-524 9-169.06-25.57-326.4-82.57-472-171-88.18-54.76-165.68-122.26-232.5-202.5-100.46-123-157.3-264-170.5-423z" fill="#fefefe"/><path d="m2289.5 955.5c-0.56-4.665-1.89-8.998-4-13-2.15-6.942-3.82-13.942-5-21 0.05-5.889-0.62-11.556-2-17-2.58-28.267 2.59-54.934 15.5-80 21.76-36.295 52.26-46.461 91.5-30.5 22.45 12.732 39.62 30.565 51.5 53.5 25.47 48.818 29.14 99.151 11 151-18.57 41.04-49.07 54.21-91.5 39.5-18.18-9.35-33.01-22.52-44.5-39.5-9.12-13.575-16.62-27.908-22.5-43z" fill="#010101"/><path d="m1599.5 1074.5c-1.11 2.1-1.78 4.43-2 7-6.57 26.39-20.57 47.89-42 64.5-30.81 15.6-60.47 13.6-89-6-26.91-20.64-46.41-46.81-58.5-78.5-15.04-39.13-18.04-79.135-9-120 6.49-25.173 19.66-46.007 39.5-62.5 29.36-18.938 59.03-19.271 89-1 30 21.476 51.16 49.643 63.5 84.5 13.28 36.561 16.12 73.89 8.5 112z" fill="#010101"/><path d="m2278.5 904.5c1.38 5.444 2.05 11.111 2 17-1.51-5.429-2.18-11.096-2-17z" fill="#b5b5b5"/><path d="m2285.5 942.5c2.11 4.002 3.44 8.335 4 13-2.11-4.002-3.44-8.335-4-13z" fill="#989898"/><path d="m1599.5 1074.5c0.33 2.73-0.34 5.06-2 7 0.22-2.57 0.89-4.9 2-7z" fill="#979797"/><path d="m2185.5 1686.5c-0.06-0.54-0.39-0.88-1-1-0.99 3.61-1.32 7.27-1 11-6.69 101.26-39.19 192.92-97.5 275-60.48 81.82-135.64 146.32-225.5 193.5-120.46 61.78-248.46 94.45-384 98-115.98 3.75-228.65-13.58-338-52-104.98-37.54-196.15-96.04-273.5-175.5-133.09-146.07-169.75-313.73-110-503 16.597-45.38 42.763-84.22 78.5-116.5 4.159-3.25 8.492-6.25 13-9 6.002-0.75 10.835 1.41 14.5 6.5 0.667 3.33 0.667 6.67 0 10-2.943 8.1-4.776 16.44-5.5 25-1.161 13.49-1.327 27.16-0.5 41 0.198 1.88 0.698 3.55 1.5 5 10.222 53.06 41.889 85.22 95 96.5 46.183 4.43 90.85-1.9 134-19 37.55-14.94 73.21-33.27 107-55 23.17-15.42 46.17-31.09 69-47 50.82-37.91 101.82-75.58 153-113 49.46-35.41 102.13-65.75 158-91 100.37-42.05 202.71-47.05 307-15 98.74 31 177.07 89.17 235 174.5 3.06-50.29 17.22-96.96 42.5-140 42.53-64.71 102.36-102.88 179.5-114.5 50.06-4.4 99.06 0.93 147 16 15.48 4.94 30.82 10.27 46 16 50.48 22.41 100.82 45.08 151 68 13.66 5.22 27.66 9.22 42 12 65.18 9.14 96.35-19.02 93.5-84.5-2.61-18.59-7.77-36.43-15.5-53.5 1.84-10.42 7.5-13.08 17-8 18.28 11.27 34.44 25.1 48.5 41.5 50.62 64.28 81.29 137.28 92 219 11.04 94.82-6.63 183.82-53 267-55.3 88.93-133.14 149.1-233.5 180.5-140.52 41.52-270.86 20.85-391-62-36.94-27.11-68.61-59.28-95-96.5z"/><path d="m855.5 1448.5c-0.171 15.35 0.163 30.68 1 46-0.802-1.45-1.302-3.12-1.5-5-0.827-13.84-0.661-27.51 0.5-41z" fill="#cececd"/><path d="m592.5 1598.5c-0.112 11.67-0.445 23.34-1 35h-1c-0.096-11.86 0.571-23.53 2-35z" fill="#a7a6a6"/><path d="m590.5 1633.5h1c0.058 24.34 0.391 48.67 1 73-1.728-24.14-2.395-48.48-2-73z" fill="#c6c6c6"/><path d="m2185.5 1686.5c-0.67 3.33-1.33 6.67-2 10-0.32-3.73 0.01-7.39 1-11 0.61 0.12 0.94 0.46 1 1z" fill="#909090"/><path d="m828.5 2295.5c0.342 0.84 1.008 1.17 2 1 54.758 41.57 112.76 78.4 174 110.5 164.42 82.8 338.42 132.8 522 150 347.89 31.12 676.89-32.71 987-191.5 0.67 0 1-0.33 1-1h1c209.7-51.54 419.36-103.21 629-155v1491c-450.36-110.51-900.69-221.17-1351-332-425.32 108.5-850.65 217-1276 325.5-12.55 3.47-25.216 6.3-38 8.5v-1495c116.37 29.18 232.7 58.51 349 88z" fill="#c00d1a"/><path d="m642.5 2441.5c65.26 13.07 130.26 27.23 195 42.5 49.552 18.55 82.385 53.05 98.5 103.5 1.589 5.94 2.922 11.94 4 18 1.149 52.81 1.649 105.64 1.5 158.5 0.098 60.51-0.402 121.01-1.5 181.5-6.789 53.43-33.955 92.6-81.5 117.5-14.933 6.97-30.6 11.3-47 13-16.324 1.16-32.657 2.16-49 3-3.938 0.21-6.772 2.05-8.5 5.5-0.333 122-0.667 244-1 366-2.673 3.23-6.173 5.06-10.5 5.5-32.497 7-64.997 14.17-97.5 21.5-3.401-0.2-5.734-1.86-7-5-0.667-342.33-0.667-684.67 0-1027 1.397-1.57 2.897-2.9 4.5-4z" fill="#fefefe"/><path d="m2983.5 2530.5c0.94 84.66 1.28 169.33 1 254-0.62 1.84-1.96 3-4 3.5-2.6 0.92-5.27 1.59-8 2-27.65 1.4-55.32 1.73-83 1-5.63 0.12-10.47-1.71-14.5-5.5-0.33-57.67-0.67-115.33-1-173-0.64-13.44-6.14-24.28-16.5-32.5-18.45-5.38-35.78-2.71-52 8-8.33 7.63-12.83 17.13-13.5 28.5-0.17 18.83-0.33 37.67-0.5 56.5-6.01 61.79 7.82 118.62 41.5 170.5 28 40 56 80 84 120 33.34 50 55.34 104.67 66 164 1.91 10.25 3.07 20.59 3.5 31 0.92 63.33 1.25 126.66 1 190-0.53 22.32-3.36 44.32-8.5 66-12.56 43.54-41.56 64.21-87 62-49.63-3.78-97.79-14.28-144.5-31.5-28.25-11.92-48.09-32.09-59.5-60.5-9.07-27.26-14.07-55.26-15-84-0.67-70.33-0.67-140.67 0-211 1.96-3.96 5.13-6.46 9.5-7.5 22.33-0.67 44.67-0.67 67 0 10.48-0.22 20.48 1.78 30 6 0.63 0.75 1.13 1.58 1.5 2.5 0.33 64 0.67 128 1 192 0.4 12.4 2.73 24.4 7 36 3.96 7.07 9.79 11.9 17.5 14.5 12.02 4.1 24.35 5.76 37 5 12.05-1.71 19.21-8.55 21.5-20.5 0.91-4.29 1.58-8.63 2-13 0.67-44.33 0.67-88.67 0-133-2.61-25.78-9.28-50.44-20-74-7.24-15.48-15.24-30.48-24-45-24.09-35.84-48.42-71.51-73-107-30.66-45.33-52.66-94.66-66-148-4.21-18.47-7.21-37.14-9-56-2.22-51.35-1.89-102.69 1-154 2.03-27.82 10.36-53.49 25-77 12.96-15.62 28.79-27.45 47.5-35.5 22.41-8.69 45.41-15.35 69-20 28.89-6.4 58.06-10.57 87.5-12.5 38.83-2.77 63.16 14.56 73 52 2.81 11.86 4.64 23.86 5.5 36z" fill="#fefefe"/><path d="m2608.5 2509.5c4.18-0.33 7.68 1 10.5 4 0.67 41 0.67 82 0 123-2.45 2.97-5.61 4.47-9.5 4.5-33.1 5.13-66.1 10.79-99 17-1.79 0.78-3.29 1.95-4.5 3.5-0.67 70.67-0.67 141.33 0 212 1.58 4.79 4.91 6.79 10 6 24.8-1.96 49.64-2.8 74.5-2.5 1.55 1.21 2.72 2.71 3.5 4.5 0.67 37 0.67 74 0 111-0.47 1.43-1.3 2.6-2.5 3.5-3.55 1.17-7.21 1.84-11 2-23.7 0.92-47.37 2.26-71 4l-3.5 3.5c-0.17 42.17-0.33 84.33-0.5 126.5-0.16 42.92 0.34 85.75 1.5 128.5 2.79 2.15 5.96 3.31 9.5 3.5 32.4 5.25 64.74 10.91 97 17 1.79 0.78 3.29 1.95 4.5 3.5 0.67 41 0.67 82 0 123-1.74 2.37-4.08 3.7-7 4-70.17-15.7-140.34-31.53-210.5-47.5-2.17-0.83-3.67-2.33-4.5-4.5-0.67-266.67-0.67-533.33 0-800 1.34-2.59 3.51-4.09 6.5-4.5 68.91-14.75 137.58-29.91 206-45.5z" fill="#fefefe"/><path d="m1003.5 2520.5c60.64 13.16 121.31 26.33 182 39.5 21.31 3.32 40.31 11.65 57 25 16.28 16.75 24.78 36.92 25.5 60.5 0.67 71.67 0.67 143.33 0 215-0.13 21.37-5.8 41.04-17 59-8.78 11.11-19.61 19.61-32.5 25.5 34.01 16.81 51.84 44.31 53.5 82.5 0.17 51.5 0.33 103 0.5 154.5 0.16 52.25-0.34 104.42-1.5 156.5-0.9 1.2-2.07 2.03-3.5 2.5-24.32 5.44-48.65 10.77-73 16-4.3 1.09-8.63 1.42-13 1l-3.5-3.5c-3.48-100.14-4.31-200.31-2.5-300.5 2.93-18.65-2.4-34.32-16-47-3.77-2.22-7.77-3.89-12-5-7.17-0.17-14.33-0.33-21.5-0.5-7.93-0.14-15.77 0.36-23.5 1.5l-1.5 1.5c-0.33 123-0.67 246-1 369-1.26 2.93-3.43 4.76-6.5 5.5-29.23 6.69-58.57 12.86-88 18.5-3.68 0.16-6.177-1.5-7.5-5-0.667-289-0.667-578 0-867 1.73-1.9 3.56-3.57 5.5-5z" fill="#fefefe"/><path d="m2983.5 2530.5c0.83 4.48 1.33 9.15 1.5 14 0.83 80.17 0.67 160.17-0.5 240 0.28-84.67-0.06-169.34-1-254z" fill="#f4d5d6"/><path d="m757.5 2585.5c22.093 0.75 41.76 7.92 59 21.5 13.263 12.69 21.096 28.19 23.5 46.5 1.358 86.33 1.691 172.66 1 259-2.77 25.75-16.27 42.92-40.5 51.5-14.282 1.87-28.615 2.54-43 2-1.549-1.21-2.715-2.71-3.5-4.5-0.667-123.67-0.667-247.33 0-371 0.997-1.82 2.164-3.49 3.5-5z" fill="#c00e1a"/><path d="m2237.5 2591.5c3.02-0.16 6.02 0 9 0.5 1.83 0.5 3 1.67 3.5 3.5 0.17 207 0.67 414 1.5 621 1.89 2.78 4.56 4.28 8 4.5 25.65 4.09 51.31 8.09 77 12 1.58 0.71 3.08 1.54 4.5 2.5 1.65 36.58 1.99 73.25 1 110-3.4 3.7-7.56 4.87-12.5 3.5-59.72-12.94-119.39-26.28-179-40-1.2-0.9-2.03-2.07-2.5-3.5-0.67-230.67-0.67-461.33 0-692 1.21-1.55 2.71-2.72 4.5-3.5 28.61-5.54 56.94-11.71 85-18.5z" fill="#fefefe"/><path d="m1348.5 2596.5c27.71 5.62 55.38 11.45 83 17.5 3.05 0.61 5.55 2.11 7.5 4.5 0.67 227.33 0.67 454.67 0 682-0.83 2.17-2.33 3.67-4.5 4.5-27.47 5.96-54.97 11.79-82.5 17.5-3.63 0.52-6.3-0.81-8-4-0.67-239-0.67-478 0-717 1.02-2.19 2.52-3.85 4.5-5z" fill="#fefefe"/><path d="m1516.5 2633.5c25.52 4.2 50.86 9.37 76 15.5 1.79 0.78 3.29 1.95 4.5 3.5 21.88 92.35 43.22 184.68 64 277 0.29 2.43 1.46 4.26 3.5 5.5 3.82 1.02 7.32 0.52 10.5-1.5 0.33-86.67 0.67-173.33 1-260 3.31-3.83 7.47-4.99 12.5-3.5 19.71 4.18 39.38 8.51 59 13l3.5 3.5c0.67 182 0.67 364 0 546-0.95 2.07-2.45 3.57-4.5 4.5-21.19 5.41-42.53 9.74-64 13-1.79-0.78-3.29-1.95-4.5-3.5-24-100-48.33-200-73-300-1.69-3.71-4.52-4.88-8.5-3.5-1.83 107.62-2.66 215.46-2.5 323.5-0.78 1.79-1.95 3.29-3.5 4.5-23.27 5.48-46.6 10.65-70 15.5-3.27-0.55-5.77-2.22-7.5-5-0.67-214.67-0.67-429.33 0-644 1.38-1.21 2.54-2.54 3.5-4z" fill="#fefdfd"/><path d="m2000.5 2645.5c30.62-3.95 51.46 8.39 62.5 37 4.59 13.28 7.26 26.94 8 41 0.67 40 0.67 80 0 120-0.83 1.5-2 2.67-3.5 3.5-26.32 1.55-52.65 2.72-79 3.5-4 0.25-6.84-1.42-8.5-5-1.02-30.99-1.68-61.99-2-93-5.54-10.18-14.04-14.02-25.5-11.5-6.99 1.08-13.99 2.08-21 3-9.68 2.25-16.85 7.75-21.5 16.5-0.99 130.04-0.66 260.04 1 390 2.83 8.17 8.33 13.67 16.5 16.5 15.27 2.15 30.61 3.15 46 3 5.26-2.26 8.76-6.09 10.5-11.5 0.5-36.67 0.67-73.33 0.5-110-7.37 0.04-14.7-0.46-22-1.5-2.17-0.83-3.67-2.33-4.5-4.5-0.67-31.33-0.67-62.67 0-94 1.21-1.55 2.71-2.72 4.5-3.5 36.33-0.67 72.67-0.67 109 0 1.79 0.78 3.29 1.95 4.5 3.5 0.67 84.33 0.67 168.67 0 253-1.29 22.24-8.96 41.9-23 59-15.3 14.54-33.46 20.04-54.5 16.5-43.34-9.33-86.68-18.67-130-28-23.1-7.43-38.6-22.6-46.5-45.5-2.56-9.51-4.23-19.18-5-29-0.67-144.67-0.67-289.33 0-434-0.55-33.75 15.28-55.25 47.5-64.5 45.51-10.08 90.84-20.24 136-30.5z" fill="#fefdfd"/><path d="m1172.5 2697.5c0.24 17.17 0.91 34.17 2 51 0.68 45.05-0.49 90.05-3.5 135-1.12 14.78-8.62 24.61-22.5 29.5-15 0.67-30 0.67-45 0-1.55-1.21-2.72-2.71-3.5-4.5-0.67-84.67-0.67-169.33 0-254 1.4-3.28 3.9-4.95 7.5-5 14.02 3.09 27.68 7.25 41 12.5 13.1 8.36 21.1 20.19 24 35.5z" fill="#c0111b"/><path d="m1172.5 2697.5c1.6 16.81 2.27 33.81 2 51-1.09-16.83-1.76-33.83-2-51z" fill="#efbfba"/><path d="m2986.5 3158.5c0.82 3.81 1.32 7.81 1.5 12 0.83 59.5 0.67 118.83-0.5 178 0.25-63.34-0.08-126.67-1-190z" fill="#f9e7e3"/><path d="m3208.5 3592.5c27.77-3.53 48.27 6.8 61.5 31 10.04 26 4.88 48.5-15.5 67.5-21.36 14.15-43.36 15.15-66 3-25.92-21-31.42-46.5-16.5-76.5 9.08-12.92 21.25-21.26 36.5-25zm8 11c25.16 0.81 40.32 13.48 45.5 38 1.41 25.35-10.09 41.52-34.5 48.5-27.22 2.14-44.05-10.02-50.5-36.5-0.87-27.97 12.29-44.64 39.5-50zm-9 25c5.01-0.17 10.01 0 15 0.5 5.49 1.8 6.99 5.3 4.5 10.5-0.9 1.2-2.07 2.03-3.5 2.5-5.28 1.09-10.61 1.59-16 1.5v-15z" fill="#0f0f0f" opacity=".953"/><path d="m3193.5 3618.5c12.67-0.17 25.34 0 38 0.5 11.17 5.54 14 14.04 8.5 25.5-2.74 3.62-6.24 6.12-10.5 7.5 1.79 0.78 3.29 1.95 4.5 3.5 4.17 7 8.33 14 12.5 21-5.67 1.33-11.33 1.33-17 0-2.99-6.66-6.49-12.99-10.5-19-3.18-3.17-7.01-4.51-11.5-4v24h-14v-59zm14 10v15c5.39 0.09 10.72-0.41 16-1.5 1.43-0.47 2.6-1.3 3.5-2.5 2.49-5.2 0.99-8.7-4.5-10.5-4.99-0.5-9.99-0.67-15-0.5z" fill="#0f0f0f" opacity=".953"/></g></svg>
