<svg width="105.83mm" height="65.845mm" version="1.1" viewBox="0 0 105.83 65.845" xmlns="http://www.w3.org/2000/svg"><g transform="translate(-90.55 -32.518)"><g transform="translate(66.829 8.7963)" fill="#fff"><g transform="matrix(.73337 0 0 .73337 -78.217 -39.922)"><path transform="translate(139,86.783)" d="m10.357 38.827v-28.582h-10.357v-10.245h32.347v10.245h-10.3v28.582z" data-name="Path 1"/><path transform="translate(90.617,86.783)" d="m103.95 38.827-1.385-4.541h-13.891l-1.39 4.541h-13.25l14.235-38.827h14.7l14.233 38.827zm-8.331-27.3-3.817 12.514h7.638z" data-name="Path 2"/><path transform="translate(5.219,86.783)" d="m204.7 38.827v-38.827h11.69v28.582h14.64v10.245z" data-name="Path 3"/><path transform="translate(139,8.959)" d="m10.357 157.91v-28.582h-10.357v-10.245h32.347v10.245h-10.3v28.582z" data-name="Path 4"/><path transform="translate(72.938,8.959)" d="m101.08 157.91v-38.827h29.284v10.245h-17.594v3.842h17.189v10.245h-17.189v4.25h17.594v10.245z" data-name="Path 5"/><path transform="translate(13.957,10.166)" d="m191.33 137.32c0-11.992 9.146-20.083 21.236-20.083 10.13 0 15.219 5.937 17.537 11.293l-10.069 4.714a8.2 8.2 0 0 0-7.468-5.646c-5.612 0-9.372 4.306-9.372 9.722s3.76 9.722 9.372 9.722a8.2 8.2 0 0 0 7.468-5.648l10.069 4.657c-2.257 5.181-7.407 11.352-17.537 11.352-12.09 1e-3 -21.236-8.15-21.236-20.083z" data-name="Path 6"/><path transform="translate(-63.031,8.959)" d="m334.65 157.91v-14.843h-13.829v14.843h-11.69v-38.827h11.69v13.739h13.829v-13.739h11.69v38.827z" data-name="Path 7"/></g><g transform="matrix(.26458 0 0 .26458 -.35383 -.52046)" fill-opacity=".8" stroke="#ef3917" stroke-width="0" style="shape-inside:url(#rect10560);white-space:pre" aria-label="ÜLIÕPILASESINDUS"><path d="m200.05 318.03c0-0.71714-0.63108-1.3195-1.3482-1.3195s-1.3482 0.6024-1.3482 1.3195c0 0.74583 0.63108 1.3482 1.3482 1.3482s1.3482-0.6024 1.3482-1.3482zm-5.9379 0c0-0.71714-0.60239-1.3195-1.3195-1.3195-0.74583 0-1.3482 0.6024-1.3482 1.3195 0 0.74583 0.6024 1.3482 1.3482 1.3482 0.71714 0 1.3195-0.6024 1.3195-1.3482zm1.6064 22.461c5.1921 0 7.8025-3.0407 7.8025-7.8025v-11.675h-2.3809v11.646c0 3.4996-1.8932 5.7084-5.4216 5.7084s-5.4216-2.2088-5.4216-5.7084v-11.646h-2.3809v11.704c0 4.7044 2.6104 7.7738 7.8025 7.7738z"/><path d="m219.27 340.15v-2.1227h-8.8925v-17.011h-2.3809v19.133z"/><path d="m225.01 340.15v-19.133h-2.3809v19.133z"/><path d="m238.2 340.49c5.6511 0 9.4949-4.2455 9.4949-9.8965 0-5.6511-3.8439-9.8965-9.4949-9.8965-5.6797 0-9.4949 4.2455-9.4949 9.8965 0 5.6511 3.8152 9.8965 9.4949 9.8965zm0-2.1227c-4.3028 0-7.028-3.3275-7.028-7.7738 0-4.475 2.7251-7.7738 7.028-7.7738 4.2742 0 7.028 3.2988 7.028 7.7738 0 4.4463-2.7538 7.7738-7.028 7.7738zm1.7211-18.904c1.8072 0 2.7825-1.6064 2.7825-3.8439h-1.2908c0 1.7211-0.6024 2.467-1.3769 2.467-1.3769 0-1.463-2.6391-3.5283-2.6391-1.8072 0-2.7825 1.6064-2.7825 3.8439h1.2908c0-1.7211 0.6024-2.467 1.3769-2.467 1.3769 0 1.4343 2.6391 3.5283 2.6391z"/><path d="m253.81 340.15v-7.6017h5.3068c3.7865 0 5.9953-2.6391 5.9953-5.7658s-2.1514-5.7658-5.9953-5.7658h-7.6877v19.133zm5.02-9.7244h-5.02v-7.2861h5.02c2.2662 0 3.8152 1.4916 3.8152 3.6431s-1.549 3.6431-3.8152 3.6431z"/><path d="m270.65 340.15v-19.133h-2.3809v19.133z"/><path d="m286.39 340.15v-2.1227h-8.8925v-17.011h-2.3809v19.133z"/><path d="m306.13 340.15-7.7164-19.133h-2.9546l-7.6877 19.133h2.7251l1.6924-4.2455h9.5236l1.6924 4.2455zm-5.1347-6.3682h-8.118l4.0734-10.298z"/><path d="m314.42 340.49c5.1634 0 7.0566-2.8399 7.0566-5.6224 0-7.1427-11.331-4.6758-11.331-8.9786 0-1.8072 1.6351-3.0407 3.9299-3.0407 2.094 0 4.102 0.71714 5.5363 2.2948l1.4343-1.7498c-1.6064-1.6924-3.8726-2.6678-6.7985-2.6678-3.7578 0-6.569 2.1514-6.569 5.3068 0 6.8272 11.331 4.102 11.331 9.036 0 1.463-1.09 3.2988-4.5036 3.2988-2.6964 0-4.7618-1.3195-6.024-2.7251l-1.4056 1.8072c1.5777 1.7785 4.016 3.0407 7.3435 3.0407z"/><path d="m337.57 340.15v-2.1227h-10.155v-6.5977h9.9539v-2.1227h-9.9539v-6.1674h10.155v-2.1227h-12.536v19.133z"/><path d="m347.55 340.49c5.1634 0 7.0566-2.8399 7.0566-5.6224 0-7.1427-11.331-4.6758-11.331-8.9786 0-1.8072 1.6351-3.0407 3.9299-3.0407 2.094 0 4.102 0.71714 5.5363 2.2948l1.4343-1.7498c-1.6064-1.6924-3.8726-2.6678-6.7985-2.6678-3.7578 0-6.569 2.1514-6.569 5.3068 0 6.8272 11.331 4.102 11.331 9.036 0 1.463-1.09 3.2988-4.5036 3.2988-2.6964 0-4.7618-1.3195-6.024-2.7251l-1.4056 1.8072c1.5777 1.7785 4.016 3.0407 7.3435 3.0407z"/><path d="m360.55 340.15v-19.133h-2.3809v19.133z"/><path d="m380.86 340.15v-19.133h-2.3809v14.945l-11.015-14.945h-2.4383v19.133h2.3809v-15.261l11.159 15.261z"/><path d="m391.87 340.15c5.9379 0 9.8105-4.102 9.8105-9.5523 0-5.4216-3.8726-9.581-9.8105-9.581h-6.5403v19.133zm0-2.1227h-4.1594v-14.888h4.1594c4.7331 0 7.3435 3.3275 7.3435 7.4583 0 4.102-2.6964 7.4296-7.3435 7.4296z"/><path d="m413.21 340.49c5.1921 0 7.8025-3.0407 7.8025-7.8025v-11.675h-2.3809v11.646c0 3.4996-1.8932 5.7084-5.4216 5.7084-3.5283 0-5.4216-2.2088-5.4216-5.7084v-11.646h-2.3809v11.704c0 4.7044 2.6104 7.7738 7.8025 7.7738z"/><path d="m431.69 340.49c5.1634 0 7.0566-2.8399 7.0566-5.6224 0-7.1427-11.331-4.6758-11.331-8.9786 0-1.8072 1.6351-3.0407 3.9299-3.0407 2.094 0 4.102 0.71714 5.5363 2.2948l1.4343-1.7498c-1.6064-1.6924-3.8726-2.6678-6.7985-2.6678-3.7578 0-6.569 2.1514-6.569 5.3068 0 6.8272 11.331 4.102 11.331 9.036 0 1.463-1.09 3.2988-4.5036 3.2988-2.6964 0-4.7618-1.3195-6.024-2.7251l-1.4056 1.8072c1.5777 1.7785 4.016 3.0407 7.3435 3.0407z"/></g></g></g></svg>
