<svg width="121.64mm" height="85.943mm" version="1.1" viewBox="0 0 121.64 85.943" xmlns="http://www.w3.org/2000/svg"><g transform="translate(-93.974 -142.02)"><g transform="matrix(.35278 0 0 .35278 80.122 117.11)"><path d="m67.906 256.64-18.828-46.727c-2.9141-7.2461-3.0859-7.5039-9.8125-8.7422v-3.1875c4.8672 0.0898 12.285 0.34375 14.496 0.34375 2.6523 0 10.609-0.2539 15.914-0.34375v3.1875c-3.0938 0.082-7.4219 0.082-7.4219 4.2344 0 1.3281 1.0586 4.5078 1.5898 5.9219l10.961 29.438 8.3945-21.219c1.4141-3.4414 3.8867-9.8984 3.8867-13.516 0-4.0781-3.2695-4.5938-7.3359-4.8594v-3.1875c3.5312 0.0898 9.2812 0.34375 10.602 0.34375 1.5039 0 7.6055-0.2539 11.406-0.34375v3.1875c-6.543 0.34766-7.9492 4.1445-10.164 9.5391l-19.441 45.93z" fill="#002b6e"/><path d="m122.79 185.96c0-2.8242 2.3008-4.6797 4.9492-4.6797 2.4766 0 4.5078 2.2109 4.5078 4.6016 0 2.6445-2.0312 4.8555-4.7773 4.8555-2.6484 0-4.6797-2.1211-4.6797-4.7773m-14.496 0c0-2.8242 2.3008-4.6797 4.9492-4.6797 2.4766 0 4.5117 2.2109 4.5117 4.6016 0 2.6445-2.0352 4.8555-4.7695 4.8555-2.6562 0-4.6914-2.1211-4.6914-4.7773m15.113 48.082-7.7695-20.32-8.3125 20.32zm-2.0312 22.449v-3.1758c3.8047-0.35547 7.3398-0.61719 7.3398-3.9766 0-1.418-1.1523-4.5156-1.6797-5.8438l-1.8555-5.0352h-19.535c-2.0352 5.0352-3.1797 7.6055-3.1797 9.9844 0 4.3359 4.0664 4.6016 7.332 4.8711v3.1758c-3.7148-0.0859-9.6289-0.35157-11.141-0.35157-1.4102 0-6.7109 0.26563-10.074 0.35157v-3.1758c7.2461-0.0859 9.8125-8.582 12.109-14.055l17.504-42.074h4.2383l18.211 45.426c0.97265 2.3945 2.918 7.0703 4.5078 8.5781 1.5859 1.5078 4.0625 1.8555 6.0078 2.125l0.0117 3.0195c-4.8906 0.0469-13.781-0.0899-15.824-0.0899-1.5 0-9.375 0.16016-13.973 0.2461" fill="#002b6e"/><path d="m174.9 226.36c8.3242 0 12.566-3.2734 12.566-12.016 0-8.043-3.2891-12.289-11.438-12.289-1.6484 0-3.8984 0-4.168 0.97266-0.25 0.97656-0.25 6.9726-0.25 8.2226v15.109zm19.414 30.137-12.309-17.758c-2.8555-4.0781-6.4961-8.3125-8.832-8.3125-0.4375 0-0.87109 0-1.5625 0.0859v12.91c0 7.4219 0.86719 9.8984 8.2383 9.8984v3.1758c-4.9492-0.0859-13.434-0.21485-14.902-0.21485-1.4727 0-9.8086 0.0352-14.762 0.0859l0.0117-3.0469c7.3672 0 8.1484-2.4766 8.1484-9.8984v-32.438c0-7.3438-0.78125-9.8086-8.1484-9.8086v-3.1875c4.9414 0.0898 12.398 0.34375 14.738 0.34375 2.082 0 11.094-0.34375 14.035-0.34375 4.168 0 10.488 0.52735 14.305 2.1211 5.6367 2.3828 8.582 7.0742 8.582 13.25 0 7.8711-6.5 12.816-13.602 13.98l11.871 15.094c1.8125 2.3945 3.7266 5.4062 5.8047 7.7891 1.7344 1.9492 3.125 2.5625 5.5508 3.0977v3.1758c-2.8711-0.0859-7.457-0.35157-8.5859-0.35157-1.1211 0-5.7188 0.26563-8.582 0.35157" fill="#002b6e"/><path d="m219.78 251.58-1.3789 4.8594h-4.3438v-18.379h3.9492c2.7656 8.0391 7.2969 15.457 18.25 15.457 5.7227 0 11.254-3.3555 11.254-8.8281 0-8.2188-9.4727-10.426-16.383-13.086-8.8828-3.4336-16.082-7.8633-16.082-17.586 0-10.871 9.2774-16.707 20.715-16.707 5.3398 0 10.859 1.0586 14.809 4.3359l1.2812-3.4531h4.2383l0.58594 15.914h-4.2383c-1.7656-6.8047-7.3984-12.73-15.977-12.73-4.8398 0-9.7734 2.4805-9.7734 7.25 0 6.5391 7.4961 8.5625 13.121 10.777 10.562 4.1562 20.527 8.2266 20.527 20.074 0 11.926-11.246 18.109-23.379 18.109-6.3281 0-12.738-1.9336-17.176-6.0078" fill="#002b6e"/><path d="m299.57 256.49v-3.1758c2.125-0.0859 6.0156-0.26954 6.0156-2.5625 0-2.207-3.0078-6.0195-4.3359-7.6953l-9.8984-12.992-5.3906 5.6602v8.3047c0 6.8945 0.0899 8.8359 7.9531 9.2852v3.1758c-4.9453-0.0899-12.727-0.35157-15.113-0.35157-2.2109 0-9.7227 0.26172-14.668 0.35157v-3.1758c7.5078 0 8.3008-2.4727 8.3008-9.8984v-32.438c0-7.3438-0.79297-9.8086-8.3008-9.8086v-3.1875c4.3203 0.0898 11.309 0.34375 12.902 0.34375 1.9453 0 10.883-0.2539 16.348-0.34375v3.1875c-1.6758 0-4.8594 0.44141-6.0117 1.8516-1.4102 1.6758-1.4102 5.832-1.4102 8.0352v19.008l6.0156-6.6289c2.7383-3.0039 13.164-15.109 13.164-18.652 0-2.8281-3.0938-3.3477-6.2734-3.6133v-3.1875c3.5312 0.0898 9.3672 0.34375 10.688 0.34375 2.1211 0 7.6953-0.2539 11.582-0.34375v3.1875c-3.8867 0.61329-5.4766 1.0547-7.9609 3.2578-2.2031 1.9531-4.0586 4.4258-5.9141 6.7188l-7.6914 9.4648 20.062 25.629c2.0312 2.5625 4.8594 6.9883 8.4883 7.0742v2.9297c-5.0312-0.0859-12.82 0.0469-15.199 0.0469-1.7695 0-8.9336 0.10937-13.352 0.19922" fill="#002b6e"/><path d="m356.31 234.04-7.7812-20.32-8.2969 20.32zm-2.0273 22.449v-3.1758c3.8008-0.35547 7.332-0.61719 7.332-3.9766 0-1.418-1.1445-4.5156-1.6797-5.8438l-1.8516-5.0312h-19.535c-2.0352 5.0312-3.1836 7.6016-3.1836 9.9805 0 4.3359 4.0664 4.6016 7.3398 4.8711v3.1758c-3.7148-0.0899-9.6367-0.19922-11.137-0.19922-1.4219 0-6.5195-0.0156-10.074-0.0469v-2.9297c7.2461-0.0859 9.8047-8.582 12.102-14.055l17.504-42.074h4.2344l18.211 45.426c0.96875 2.3945 2.918 7.0703 4.5078 8.5781 1.5938 1.5078 4.0664 1.8555 6.0117 2.125v3.1758c-5.3047-0.0899-14.41-0.35157-15.914-0.35157-1.4961 0-9.2734 0.26172-13.867 0.35157" fill="#002b6e"/><path d="m255.17 121.45c-0.45703 0.94532-2.9609 2.8867-3.9805 3.6016 1.1875-1.1172 3.3984-3.3203 3.7578-4.3633 0.22265-0.59765 0.22265-1.2188 0.0898-1.7383 0.46875 0.6836 0.53125 1.6758 0.13281 2.5m-89.184 0c-0.48437-0.82422-0.35547-1.8164 0.0937-2.5-0.16016 0.51953-0.0937 1.1406 0.0742 1.7383 0.39453 1.043 2.5508 3.2461 3.8125 4.3633-1.0508-0.71485-3.5547-2.6562-3.9805-3.6016m14.449-17.66c-0.35156-1.4688 0-2.9453 0.91797-3.8789-0.36328 0.80859-0.48438 1.7227-0.36328 2.6953 0.28906 1.7774 3.0508 5.9024 4.625 8.0859-1.3633-1.5117-4.7188-5.2539-5.1797-6.9023m34.199-29.766c2.3555 1.418 3.9726 4.1367 3.9726 7.3164 0 3.5586-4.6953 12.949-6.6211 16.707 1.8906-5.2266 5.2695-15.031 4.9023-18.777-0.26953-2.0586-1.0898-3.8203-2.2539-5.2461m25.516 28.098c0.15625-1.0274 0-1.9219-0.375-2.6992 0.90235 0.90625 1.293 2.3828 0.90235 3.8281-0.42969 1.6836-3.793 5.4844-5.1484 6.9609 1.5508-2.1641 4.3438-6.3008 4.6211-8.0898m14.262 15.207c-0.78515-0.35938-1.6992-0.4375-2.5859-0.13281-0.83593 0.28906-1.5117 0.92968-1.8945 1.7539-0.47265 0.8711-0.49218 3.0625-0.42578 5.2774l-4e-3 -0.0469-15.094 22.617c-0.72657 0.41406-1.5625 0.625-2.4453 0.625-0.10547 0-0.33984-0.0234-0.53906-0.27735-1.9492-1.8906-2.0156-10.406-2.0156-13.93l6.4453-21.555h-0.0703c3.6523-3.8203 5.8672-6.5781 6.2461-8.0117 0.74609-2.8047-0.90625-5.7109-3.7422-6.5156-2.8476-0.75-5.7578 0.91406-6.5312 3.7266-0.50781 1.8203 0.42578 6.1992 1.4336 10.105l-6.3828 21.262c-5.2422 9.6172-7.4453 11.207-8.2812 11.207-2.6133 0-5.6094-9.375-6.7422-15.344v-25.242c4.4375-7.8125 9.4141-17.453 9.4141-21.508 0-5.8984-4.8125-10.727-10.797-10.727-5.9492 0-10.777 4.8281-10.777 10.727 0 4.6367 6.6289 16.383 9.332 21.203v26.73c-1.3008 5.9023-4.0195 14.16-6.4844 14.16-1.3164 0-4.0547-3.8047-8.043-11.328l-6.3516-21.027c0.74219-3.0312 1.8242-7.832 1.3125-9.7461-0.73828-2.7852-3.6992-4.5-6.5391-3.6875-2.8359 0.82031-4.5 3.6328-3.7578 6.4648 0.51562 1.8906 3.8711 5.5742 6.4648 8.2031l6.0117 20.047c0.0195 3.5586-0.0273 12.816-2.0391 14.785-0.19531 0.25391-0.38281 0.27735-0.50391 0.27735-0.75 0-1.4023-0.21094-2.043-0.44141l-15.352-22.91-0.0352 0.0547c0.10546-2.1367 0.0352-4.3047-0.3711-5.1758-0.82031-1.7031-2.8711-2.3945-4.5625-1.6211-0.80469 0.41016-1.3984 1.1406-1.6562 1.9375-0.3125 0.86328-0.25781 1.8047 0.12891 2.582 0.34765 0.8125 1.7891 2.0859 4.2344 3.8359l13.879 20.699 4.1172 6.9453 0.25781 0.40625h45.941l0.28125-0.42188 2.2578-3.9023 15.676-23.672-0.10156-0.0469c2.4805-1.7422 3.8906-3.0312 4.2773-3.8438 0.84766-1.6211 0.15625-3.6484-1.543-4.5195" fill="#df053d"/><path d="m191.16 167.83h38.93l1.4883-4.7266h-41.758z" fill="#df053d"/><path d="m194.2 156.65c0.41016-0.2539 0.91797-0.42578 1.4648-0.42578 1.3789 0 2.4726 0.94922 2.4726 2.1562 0 0.16016-0.0273 0.33203-0.0742 0.4961-0.0117-1.3359-1.2148-2.4024-2.7891-2.4024-0.38672 0-0.73437 0.0703-1.0742 0.17578m4.7031 1.5039c0-1.5117-1.3633-2.6914-3.0977-2.6914-1.6875 0-3.0508 1.1797-3.0508 2.6914 0 1.4531 1.3633 2.668 3.0508 2.668 1.7344 0 3.0977-1.2148 3.0977-2.668" fill="#df053d"/><path d="m208.76 156.65c0.39844-0.2539 0.90625-0.42578 1.457-0.42578 1.3867 0 2.4766 0.94922 2.4766 2.1562 0 0.16016-0.0312 0.33203-0.0742 0.4961-0.0156-1.3359-1.2266-2.4024-2.7852-2.4024-0.38672 0-0.74219 0.0703-1.0742 0.17578m4.6875 1.5039c0-1.5117-1.3477-2.6914-3.0859-2.6914-1.6914 0-3.0586 1.1797-3.0586 2.6914 0 1.4531 1.3672 2.668 3.0586 2.668 1.7383 0 3.0859-1.2148 3.0859-2.668" fill="#df053d"/><path d="m222.89 156.65c0.41797-0.2539 0.92187-0.42578 1.4726-0.42578 1.3828 0 2.4648 0.94922 2.4648 2.1562 0 0.16016-0.0352 0.33203-0.0742 0.4961-4e-3 -1.3359-1.2188-2.4024-2.7773-2.4024-0.39454 0-0.7461 0.0703-1.0859 0.17578m4.6953 1.5039c0-1.5117-1.3477-2.6914-3.0938-2.6914-1.6914 0-3.043 1.1797-3.043 2.6914 0 1.4531 1.3516 2.668 3.043 2.668 1.7461 0 3.0938-1.2148 3.0938-2.668" fill="#df053d"/><path d="m126.27 144.41c0-0.625 0-2.0742-0.16797-2.6016-0.21875-0.66797-0.90625-0.66797-1.4375-0.66797v-0.52734h8.3125v2.9531h-0.38282c-0.32031-2.2891-1.1875-2.4258-2.9609-2.4258h-1.207c-0.51953 0-0.43359-0.0586-0.43359 0.80469v4.6367c2.293 0.11719 2.625-1 2.7266-2.4062h0.38282c-0.0117 0.87891-0.082 1.7812-0.0664 2.6602-0.0156 0.80468 0.0547 1.6289 0.0664 2.4258h-0.38282c-0.23437-2.0508-1.1211-2.1524-2.7266-2.1524v3.2109c0 0.58985 0 1.5117 0.30078 1.9766 0.4336 0.6875 1.4727 0.72657 2.1406 0.71094 1.7422-0.043 2.8789-0.29687 3.0938-2.625h0.38672l-0.14844 3.1524h-9.1016v-0.44922c0.53125 0 1.2188 0 1.4375-0.66797 0.16797-0.52735 0.16797-1.9766 0.16797-2.6055z" fill="#002b6e"/><path d="m137.35 149.62h0.38281c0.33594 1.9766 1.2383 3.6406 3.1641 3.6406 1.3047 0 2.3906-0.85937 2.3906-2.4453 0-1.7812-1.3203-2.4883-2.543-3.0586-1.5195-0.67969-3.1406-1.6211-3.1406-3.8516 0-2.2344 1.4844-3.5273 3.3086-3.5273 0.92188 0 1.7734 0.375 2.5274 1l0.38671-0.76172h0.17969l0.0859 3.3828h-0.38672c-0.38281-1.6211-1.1719-3.0938-2.793-3.0938-1.0703 0-1.957 0.80469-1.957 2.0781 0 1.5469 1.1914 2.0742 2.2266 2.5859 1.7383 0.83984 3.6797 1.8555 3.6797 4.4219s-2.043 3.8008-3.9961 3.8008c-1.1406 0-2.0274-0.39062-2.9297-1.1758l-0.40234 0.82031h-0.1836z" fill="#002b6e"/><path d="m158.07 143.66h-0.44922c-0.10156-1.9219-0.73828-2.4297-2.3086-2.4297-0.6211 0-1.625-0.0937-1.625 0.53125v9.2774c0 1.4492 0.23828 2 1.8594 2.0781v0.44922c-0.91797-0.0195-1.8594-0.0781-2.7812-0.0781-0.88281 0-1.7539 0.0586-2.6562 0.0781v-0.44922c1.6211-0.0781 1.8594-0.6289 1.8594-2.0781v-9.2774c0-0.58593-0.73829-0.53125-1.4102-0.53125-1.6562 0-2.457 0.10157-2.5234 2.4297h-0.38672v-3.0508h10.273z" fill="#002b6e"/><path d="m160.03 152.7c0-0.59375 0.38281-1.1367 0.90625-1.1367 0.51562 0 1 0.42578 1 1.0703 0 0.60937-0.40234 1.1602-0.94922 1.1602-0.52344 0-0.95703-0.49219-0.95703-1.0938" fill="#002b6e"/><path d="m261.39 150.64c0 0.54687 0 1.3672 0.11719 1.8984 0.14843 0.64453 1.1172 0.55078 1.5898 0.58593v0.44922c-0.83984-0.0195-1.6758-0.0781-2.5117-0.0781-0.85156 0-1.7031 0.0586-2.5586 0.0781v-0.44922c0.4375-0.0195 1.5195 0.0391 1.7226-0.46875 0.15235-0.39453 0.15235-1.5664 0.15235-2.0156v-6.9727c0-0.42969 0-1.3711-0.1875-1.7422-0.16797-0.35156-0.6836-0.35156-1.0508-0.35156h-0.96875v-0.39062c1.3867-0.0977 2.457-0.19922 3.6953-1z" fill="#002b6e"/><path d="m273.17 145.37c0-1.6875-0.1289-4.5469-2.1055-4.5469-1.8398 0-2.0274 2.2344-2.0274 3.8789 0 1.5859 0.10156 3.6406 1.8945 3.6406 1.0039 0 1.7578-0.92188 2.2383-1.8438zm0 1.957-0.0273-0.043c-0.64062 1.0195-1.3594 1.6875-2.4961 1.6875-1.9883 0-3.2774-1.8828-3.2774-4.0938 0-2.3711 1.5703-4.5039 3.6953-4.5039 2.7461 0 3.7812 3.2148 3.7812 5.8945 0 3.1523-1.0859 7.5195-4.4336 7.5195-0.76953 0-2.1562-0.39062-2.1562-1.5312 0-0.44531 0.28125-0.83984 0.70313-0.83984 1.0195 0 0.69922 1.8398 1.9414 1.8398 2.293 0 2.1719-4.1484 2.2695-5.9726z" fill="#002b6e"/><path d="m284.88 142.35h-3.6953c-1.4414 0-1.6406-0.0781-2.0742 1.5078l-0.1875 0.66797h-0.40234l0.97265-5.3633h0.4375l-0.0391 0.19531c-0.0273 0.21094-0.0977 0.58594-0.0977 0.80469 0 0.64453 0.4375 0.52735 1.1406 0.52735h4.9297v0.32812c-1.4336 3.2539-2.5234 6.7344-3.2109 10.32-0.15234 0.76172-0.33203 2.4492-1.2344 2.4492-0.45312 0-0.80468-0.43359-0.80468-0.96484 0-1.1289 1.7422-4.8906 2.2734-6.0703z" fill="#002b6e"/><path d="m290.97 148.17c-0.18359 0-0.31641-0.16016-0.31641-0.35547 0-0.46484 0.6875-0.81641 0.9375-0.99219 1.2852-0.9414 2.3945-1.7812 2.3945-3.7617 0-1.1797-0.45312-2.0547-1.5938-2.0547-0.9375 0-1.7695 0.62109-1.7695 1.7812 0 0.68359 0.37891 1.3711 1.0195 1.3711 0.40235 0 0.6836-0.19531 0.98438-0.47266-0.21484 0.82422-0.83594 1.2539-1.5703 1.2539-0.82032 0-1.4766-0.66406-1.4766-1.6445 0-1.918 1.8086-2.918 3.25-2.918 1.3203 0 2.7578 0.74609 2.7578 2.5039 0 1.8398-1.5234 2.7617-2.7422 3.4297l0.0312 0.0391c0.16797-0.0195 0.35156-0.0195 0.51953-0.0391 1.5898 0 2.9102 0.9961 2.9102 3.0156 0 2.7422-2.2734 4.4648-4.4492 4.4648-0.95313 0-2.7305-0.43359-2.7305-1.8828 0-0.42969 0.35547-0.76172 0.72656-0.76172 1.3516 0 0.33203 2.1953 2.4062 2.1953 1.8242 0 2.375-1.7656 2.375-3.5859 0-1.4102-0.25-3-1.7695-3-1.207 0-1.1914 1.4141-1.8945 1.4141" fill="#002b6e"/><path d="m101.91 288.04c0-2.6836-1.8086-4.8398-5.2461-4.8398-3.4414 0-5.4258 2.1562-5.4258 4.8398v15.516c0 2.6836 1.9219 4.7852 5.3633 4.7852 3.2656 0 5.3086-2.0391 5.3086-4.7852zm-5.2461 26.191c-6.7695 0-12.016-3.9102-12.016-10.617v-15.633c0-6.5898 5.1289-10.672 11.953-10.672 6.6523 0 11.957 3.9648 11.957 10.672v15.633c0 6.5898-5.0742 10.617-11.895 10.617" fill="#df053d"/><path d="m125.75 283.72v10.617h6.1836c2.8008 0 4.2578-3.6172 4.2578-5.6016 0-2.9688-1.5781-5.0156-5.0742-5.0156zm12.016 14.758c-0.23047 0.23047-0.29297 0.41016-0.29297 0.58594s0.11719 0.40625 0.29297 0.69531l6.0078 12.832c0.29297 0.58594 0 1.2852-0.8164 1.2852h-4.4336c-1.5156 0-1.8086-0.52344-2.1602-1.2852l-5.6562-12.539h-4.957c0 4.3203 0.0586 8.6328 0.0586 12.945 0 0.64453-0.34766 0.87891-1.0508 0.87891h-4.4922c-0.69922 0-1.0469-0.23438-1.0469-0.87891v-34.117c0-0.64063 0.28906-0.98829 0.93359-0.98829h11.547c7 0 11.082 3.8477 11.082 10.438 0 3.5586-2.332 7.7539-5.0156 10.148" fill="#df053d"/><path d="m158.64 313.88h-4.5508c-0.63672 0-1.0469-0.23829-1.0469-0.88282v-34.176c0-0.64062 0.35156-0.92969 1.0469-0.92969h4.5508c0.52735 0 1.0508 0.23047 1.0508 0.92969v34.176c0 0.64453-0.40625 0.88282-1.0508 0.88282" fill="#df053d"/><path d="m193.46 282.79c0.29297 0.46875 0.29297 1.0547-0.28906 1.4609l-3.3281 2.3906c-0.64062 0.29297-1.1055-0.0586-1.5742-0.58203-1.457-1.9844-3.3242-2.8594-5.6016-2.8594-3.1484 0-5.1875 2.1016-5.1875 4.8398v15.809c0 2.6836 2.1562 4.4922 5.2461 4.4922 2.8008 0 4.9609-1.6914 4.9609-4.7266v-4.2578h-3.7305c-0.70312 0-1.0508-0.23047-1.0508-0.93359v-3.7891c0-0.70313 0.34766-0.9336 1.0508-0.9336h9.1524c0.70312 0 1.1094 0.23047 1.1094 0.9336v9.332c0 6.4726-4.957 10.266-11.605 10.266-6.707 0-11.664-3.8516-11.664-10.207v-16.449c0-6.2422 4.957-10.266 11.488-10.266 4.1992 0 8.5742 1.168 11.023 5.4805" fill="#df053d"/><path d="m210.48 313.88h-4.5469c-0.64453 0-1.0508-0.23829-1.0508-0.88282v-34.176c0-0.64062 0.35156-0.92969 1.0508-0.92969h4.5469c0.52734 0 1.0508 0.23047 1.0508 0.92969v34.176c0 0.64453-0.41016 0.88282-1.0508 0.88282" fill="#df053d"/><path d="m246.41 313.88h-2.9141c-0.87891 0-1.4024-0.11719-1.8672-0.9375-2.1562-3.9102-10.031-17.207-12.133-21.172l-0.17188 0.0586v21.113c0 0.69921-0.35156 0.9375-1.0508 0.9375h-4.2578c-0.70313 0-1.0508-0.23829-1.0508-0.88282v-33.766c0-0.9336 0.28906-1.3398 1.3398-1.3398h2.918c1.0508 0 1.457 0.28907 1.9258 1.0469l12.133 21.465 0.11328-0.11718v-21.523c0-0.64063 0.35157-0.8711 1.1094-0.8711h4.1406c0.64063 0 1.1094 0.23047 1.1094 0.8711v33.887c0 0.93359-0.64063 1.2305-1.3438 1.2305" fill="#df053d"/><path d="m267.16 292.18-1.9844 8.9258h7.1172c-0.69921-3.0352-1.5195-6.3008-2.1602-9.332l-1.3984-6.5312h-0.17578c-0.46875 2.3359-0.875 4.6055-1.3984 6.9375m8.9805 21.699c-0.52344 0-0.81641-0.17188-0.92969-0.64063-0.53125-2.2773-1.1133-4.4922-1.5781-6.707h-9.8555c-0.23438 0.98828-1.0508 4.4883-1.5156 6.707-0.12109 0.52344-0.46484 0.64063-0.93359 0.64063h-4.7852c-0.64062 0-0.93359-0.23438-0.93359-0.64063 0-0.17578 0.0586-0.29296 0.11719-0.46875l8.5156-34.062c0.17578-0.46484 0.52735-0.8125 1.1641-0.8125h6.5938c0.52343 0 1.0508 0.11329 1.2266 0.8125 2.9141 11.316 5.832 22.691 8.6875 34.004 0.0586 0.11719 0.0586 0.28906 0.0586 0.46875 0 0.34766-0.17578 0.69922-0.75781 0.69922z" fill="#df053d"/><path d="m298.77 292.18-1.9805 8.9258h7.1172c-0.70312-3.0352-1.5195-6.3008-2.1602-9.332l-1.4024-6.5312h-0.17187c-0.46875 2.3359-0.875 4.6055-1.4024 6.9375m8.9844 21.699c-0.52734 0-0.81641-0.17188-0.93359-0.64063-0.52735-2.2773-1.1094-4.4922-1.5742-6.707h-9.8555c-0.23438 0.98828-1.0508 4.4883-1.5195 6.707-0.11328 0.52344-0.46485 0.64063-0.92969 0.64063h-4.7852c-0.64062 0-0.93359-0.23438-0.93359-0.64063 0-0.17578 0.0586-0.29296 0.11719-0.46875l8.5156-34.062c0.17578-0.46484 0.52735-0.8125 1.168-0.8125h6.5859c0.52734 0 1.0547 0.11329 1.2305 0.8125 2.9141 11.316 5.8281 22.691 8.6875 34.004 0.0586 0.11719 0.0586 0.28906 0.0586 0.46875 0 0.34766-0.17578 0.69922-0.75781 0.69922z" fill="#df053d"/><path d="m342.39 313.88h-19.539c-0.64062 0-0.99219-0.35547-0.99219-0.9961v-34.121c0-0.64063 0.23047-0.8711 0.99219-0.8711h4.4883c0.64453 0 0.99219 0.23047 0.99219 0.8125v29.398h14.059c0.58204 0 0.875 0.23438 0.875 0.875v3.9062c0 0.64063-0.23437 0.9961-0.875 0.9961" fill="#df053d"/></g></g></svg>
